<svg width="100%" viewBox="0 0 900 280" xmlns="http://www.w3.org/2000/svg" role="img">
<title>POG Sudarshan — Pixel Art Side-Scroller Banner</title>
<desc>Animated pixel art game banner showing a character running through a tech world with code blocks, platforms, and the POG Sudarshan brand.</desc>

<defs>
  <style>
    /* SKY BACKGROUND */
    .sky { fill: #0d0d0d; }
    .ground { fill: #1a1a1a; }
    .ground-line { fill: #F5A623; }

    /* STARS */
    .star { fill: #ffffff; animation: twinkle 2s infinite alternate; }
    .star2 { fill: #F5A623; animation: twinkle 1.4s infinite alternate; }
    @keyframes twinkle {
      0%   { opacity: 0.2; }
      100% { opacity: 1; }
    }

    /* SCROLLING CLOUDS / BG ELEMENTS */
    .cloud { fill: #1f1f1f; animation: scrollCloud 18s linear infinite; }
    .cloud2 { fill: #1a1a1a; animation: scrollCloud2 24s linear infinite; }
    @keyframes scrollCloud {
      0%   { transform: translateX(0); }
      100% { transform: translateX(-900px); }
    }
    @keyframes scrollCloud2 {
      0%   { transform: translateX(200px); }
      100% { transform: translateX(-700px); }
    }

    /* GROUND SCROLL */
    .bg-grid { animation: scrollGrid 6s linear infinite; }
    @keyframes scrollGrid {
      0%   { transform: translateX(0); }
      100% { transform: translateX(-60px); }
    }

    /* PLATFORMS */
    .platform { fill: #F5A623; }
    .platform-top { fill: #ffbe4d; }
    .platform-dark { fill: #cc8800; }

    /* CODE BLOCKS (collectibles) */
    .code-block { fill: #F5A623; animation: floatBlock 1.5s ease-in-out infinite alternate; }
    .code-block2 { fill: #F5A623; animation: floatBlock 1.5s ease-in-out infinite alternate; animation-delay: 0.3s; }
    .code-block3 { fill: #F5A623; animation: floatBlock 1.5s ease-in-out infinite alternate; animation-delay: 0.6s; }
    @keyframes floatBlock {
      0%   { transform: translateY(0); }
      100% { transform: translateY(-6px); }
    }

    /* QUESTION BLOCKS */
    .q-block { fill: #cc8800; }
    .q-text { fill: #0d0d0d; font-family: monospace; font-size: 12px; font-weight: bold; }

    /* CHARACTER BODY PARTS */
    .char-body     { fill: #F5A623; }
    .char-head     { fill: #F5A623; }
    .char-eye      { fill: #0d0d0d; }
    .char-shoe     { fill: #0d0d0d; }
    .char-pants    { fill: #222222; }
    .char-shirt    { fill: #F5A623; }
    .char-hair     { fill: #1a1a1a; }
    .char-visor    { fill: #0d0d0d; }
    .char-visor-g  { fill: #F5A623; opacity: 0.5; }
    .char-glasses  { fill: none; stroke: #0d0d0d; stroke-width: 1.5; }
    .char-skin     { fill: #c8956c; }

    /* RUN ANIMATION */
    .runner { animation: run 0.35s steps(1) infinite; }
    .leg-l  { transform-origin: 640px 215px; animation: legL 0.35s steps(1) infinite; }
    .leg-r  { transform-origin: 652px 215px; animation: legR 0.35s steps(1) infinite; }
    .arm-l  { transform-origin: 636px 190px; animation: armL 0.35s steps(1) infinite; }
    .arm-r  { transform-origin: 656px 190px; animation: armR 0.35s steps(1) infinite; }

    @keyframes legL {
      0%,100% { transform: rotate(-25deg); }
      50%     { transform: rotate(25deg); }
    }
    @keyframes legR {
      0%,100% { transform: rotate(25deg); }
      50%     { transform: rotate(-25deg); }
    }
    @keyframes armL {
      0%,100% { transform: rotate(20deg); }
      50%     { transform: rotate(-20deg); }
    }
    @keyframes armR {
      0%,100% { transform: rotate(-20deg); }
      50%     { transform: rotate(20deg); }
    }

    /* SCROLLING GROUND SPEED LINES */
    .speed-line { stroke: #2a2a2a; stroke-width: 1; animation: speedScroll 0.4s linear infinite; }
    @keyframes speedScroll {
      0%   { transform: translateX(0); }
      100% { transform: translateX(-60px); }
    }

    /* PIXEL FONT TEXT */
    .pixel-text  { font-family: 'Courier New', monospace; fill: #F5A623; font-weight: bold; letter-spacing: 2px; }
    .pixel-small { font-family: 'Courier New', monospace; fill: #888888; font-weight: bold; font-size: 10px; letter-spacing: 1px; }
    .pixel-white { font-family: 'Courier New', monospace; fill: #ffffff; font-weight: bold; }
    .pixel-score { font-family: 'Courier New', monospace; fill: #F5A623; font-size: 11px; font-weight: bold; }

    /* HUD */
    .hud-box { fill: none; stroke: #F5A623; stroke-width: 1; }
    .hud-fill { fill: #F5A623; }
    .hud-fill-low { fill: #cc2200; }
    .health-bar { animation: healthPulse 1s ease-in-out infinite alternate; }
    @keyframes healthPulse {
      0%   { opacity: 1; }
      100% { opacity: 0.7; }
    }

    /* TERMINAL BUILDING */
    .building { fill: #111111; stroke: #F5A623; stroke-width: 1; }
    .building-window { animation: winBlink 3s steps(1) infinite; }
    .building-window2 { animation: winBlink 2s steps(1) infinite; animation-delay: 0.8s; }
    @keyframes winBlink {
      0%,90%,100% { fill: #F5A623; opacity: 0.8; }
      91%,99%     { fill: #F5A623; opacity: 0.1; }
    }

    /* COIN SPIN */
    .coin { animation: coinSpin 0.6s steps(4) infinite; }
    @keyframes coinSpin {
      0%   { transform: scaleX(1); }
      25%  { transform: scaleX(0.5); }
      50%  { transform: scaleX(0); }
      75%  { transform: scaleX(-0.5); }
      100% { transform: scaleX(1); }
    }

    /* TECH TAGS SCROLL */
    .tag-scroll { animation: tagDrift 12s linear infinite; }
    .tag-scroll2 { animation: tagDrift 9s linear infinite; animation-delay: -4s; }
    @keyframes tagDrift {
      0%   { transform: translateX(920px); }
      100% { transform: translateX(-200px); }
    }

    /* ENEMY (BUG) PATROL */
    .bug { animation: bugPace 3s ease-in-out infinite alternate; }
    @keyframes bugPace {
      0%   { transform: translateX(0); }
      100% { transform: translateX(-50px); }
    }
    .bug-eye { animation: bugEyeMove 3s ease-in-out infinite alternate; }

    /* GROUND PATTERN LINES */
    .g-pat { fill: #1a1a1a; }

    /* SCORE COUNTER */
    .score-count { font-family: 'Courier New', monospace; fill: #F5A623; font-size: 13px; font-weight: bold; }
  </style>
</defs>

<!-- ══════════════════════════════════════════ -->
<!--   BACKGROUND LAYER                        -->
<!-- ══════════════════════════════════════════ -->

<!-- Sky -->
<rect width="900" height="280" class="sky"/>

<!-- Stars layer -->
<circle cx="50"  cy="18" r="1.5" class="star"  style="animation-delay:0s"/>
<circle cx="130" cy="30" r="1"   class="star2" style="animation-delay:0.3s"/>
<circle cx="200" cy="12" r="1.5" class="star"  style="animation-delay:0.7s"/>
<circle cx="310" cy="25" r="1"   class="star"  style="animation-delay:1.1s"/>
<circle cx="410" cy="10" r="2"   class="star2" style="animation-delay:0.5s"/>
<circle cx="500" cy="22" r="1"   class="star"  style="animation-delay:0.9s"/>
<circle cx="580" cy="8"  r="1.5" class="star"  style="animation-delay:0.2s"/>
<circle cx="700" cy="20" r="1"   class="star2" style="animation-delay:1.4s"/>
<circle cx="800" cy="15" r="1.5" class="star"  style="animation-delay:0.6s"/>
<circle cx="860" cy="30" r="1"   class="star"  style="animation-delay:1.0s"/>
<circle cx="75"  cy="45" r="1"   class="star"  style="animation-delay:0.4s"/>
<circle cx="260" cy="40" r="1"   class="star2" style="animation-delay:1.2s"/>
<circle cx="650" cy="38" r="1"   class="star"  style="animation-delay:0.8s"/>
<circle cx="760" cy="48" r="1.5" class="star2" style="animation-delay:0.1s"/>

<!-- Scrolling BG city silhouette / clouds -->
<g class="cloud">
  <!-- building silhouettes far bg -->
  <rect x="20"  y="90"  width="30" height="80" fill="#141414"/>
  <rect x="25"  y="80"  width="20" height="10" fill="#141414"/>
  <rect x="80"  y="100" width="40" height="70" fill="#141414"/>
  <rect x="150" y="85"  width="25" height="85" fill="#141414"/>
  <rect x="200" y="105" width="35" height="65" fill="#141414"/>
  <rect x="260" y="80"  width="30" height="90" fill="#141414"/>
  <rect x="320" y="95"  width="45" height="75" fill="#141414"/>
  <rect x="400" y="88"  width="28" height="82" fill="#141414"/>
  <rect x="450" y="100" width="40" height="70" fill="#141414"/>
  <rect x="520" y="82"  width="22" height="88" fill="#141414"/>
  <rect x="570" y="92"  width="38" height="78" fill="#141414"/>
  <rect x="640" y="78"  width="30" height="92" fill="#141414"/>
  <rect x="700" y="100" width="50" height="70" fill="#141414"/>
  <rect x="780" y="85"  width="25" height="85" fill="#141414"/>
  <rect x="830" y="95"  width="40" height="75" fill="#141414"/>
  <!-- duplicate for seamless loop -->
  <rect x="920" y="90"  width="30" height="80" fill="#141414"/>
  <rect x="980" y="80"  width="40" height="90" fill="#141414"/>
  <rect x="1050" y="100" width="30" height="70" fill="#141414"/>
</g>

<!-- Ground base -->
<rect x="0" y="230" width="900" height="50" class="ground"/>
<!-- Orange ground accent line -->
<rect x="0" y="230" width="900" height="3" class="ground-line"/>

<!-- Ground speed lines (scrolling) -->
<g class="speed-line">
  <line x1="0"   y1="245" x2="45"  y2="245" stroke="#2a2a2a" stroke-width="1"/>
  <line x1="60"  y1="245" x2="95"  y2="245" stroke="#2a2a2a" stroke-width="1"/>
  <line x1="110" y1="245" x2="155" y2="245" stroke="#2a2a2a" stroke-width="1"/>
  <line x1="170" y1="245" x2="215" y2="245" stroke="#2a2a2a" stroke-width="1"/>
  <line x1="230" y1="245" x2="265" y2="245" stroke="#2a2a2a" stroke-width="1"/>
  <line x1="280" y1="245" x2="330" y2="245" stroke="#2a2a2a" stroke-width="1"/>
  <line x1="345" y1="245" x2="390" y2="245" stroke="#2a2a2a" stroke-width="1"/>
  <line x1="405" y1="245" x2="450" y2="245" stroke="#2a2a2a" stroke-width="1"/>
  <line x1="465" y1="245" x2="510" y2="245" stroke="#2a2a2a" stroke-width="1"/>
  <line x1="525" y1="245" x2="570" y2="245" stroke="#2a2a2a" stroke-width="1"/>
  <line x1="0"   y1="258" x2="30"  y2="258" stroke="#252525" stroke-width="1"/>
  <line x1="50"  y1="258" x2="90"  y2="258" stroke="#252525" stroke-width="1"/>
  <line x1="110" y1="258" x2="140" y2="258" stroke="#252525" stroke-width="1"/>
  <line x1="160" y1="258" x2="210" y2="258" stroke="#252525" stroke-width="1"/>
  <line x1="230" y1="258" x2="270" y2="258" stroke="#252525" stroke-width="1"/>
  <line x1="290" y1="258" x2="330" y2="258" stroke="#252525" stroke-width="1"/>
  <line x1="350" y1="258" x2="400" y2="258" stroke="#252525" stroke-width="1"/>
  <line x1="420" y1="258" x2="460" y2="258" stroke="#252525" stroke-width="1"/>
</g>

<!-- ══════════════════════════════════════════ -->
<!--  TERMINAL BUILDING (right side deco)      -->
<!-- ══════════════════════════════════════════ -->
<rect x="750" y="120" width="120" height="110" class="building"/>
<rect x="760" y="130" width="18" height="12" class="building-window"/>
<rect x="785" y="130" width="18" height="12" class="building-window2"/>
<rect x="810" y="130" width="18" height="12" class="building-window"/>
<rect x="835" y="130" width="18" height="12" class="building-window2"/>
<rect x="760" y="150" width="18" height="12" class="building-window2"/>
<rect x="785" y="150" width="18" height="12" class="building-window"/>
<rect x="810" y="150" width="18" height="12" class="building-window2"/>
<rect x="835" y="150" width="18" height="12" class="building-window"/>
<rect x="760" y="170" width="18" height="12" class="building-window"/>
<rect x="785" y="170" width="18" height="12" class="building-window2"/>
<rect x="810" y="170" width="18" height="12" class="building-window"/>
<text x="760" y="205" class="pixel-score" font-size="8">$_compile --pog</text>
<text x="760" y="218" class="pixel-score" font-size="8" fill="#888">▶ success</text>

<!-- ══════════════════════════════════════════ -->
<!--  PLATFORMS                                -->
<!-- ══════════════════════════════════════════ -->

<!-- Platform 1 (low, left area) -->
<rect x="80"  y="195" width="80" height="8"  class="platform-top"/>
<rect x="80"  y="203" width="80" height="12" class="platform"/>
<rect x="80"  y="210" width="80" height="5"  class="platform-dark"/>
<!-- ticks on platform top -->
<rect x="84"  y="194" width="4" height="2" class="platform-dark"/>
<rect x="94"  y="194" width="4" height="2" class="platform-dark"/>
<rect x="104" y="194" width="4" height="2" class="platform-dark"/>
<rect x="114" y="194" width="4" height="2" class="platform-dark"/>
<rect x="124" y="194" width="4" height="2" class="platform-dark"/>
<rect x="134" y="194" width="4" height="2" class="platform-dark"/>
<rect x="144" y="194" width="4" height="2" class="platform-dark"/>

<!-- Platform 2 (mid, elevated) -->
<rect x="230" y="165" width="100" height="8"  class="platform-top"/>
<rect x="230" y="173" width="100" height="14" class="platform"/>
<rect x="230" y="181" width="100" height="6"  class="platform-dark"/>
<rect x="234" y="164" width="4" height="2" class="platform-dark"/>
<rect x="248" y="164" width="4" height="2" class="platform-dark"/>
<rect x="262" y="164" width="4" height="2" class="platform-dark"/>
<rect x="276" y="164" width="4" height="2" class="platform-dark"/>
<rect x="290" y="164" width="4" height="2" class="platform-dark"/>
<rect x="304" y="164" width="4" height="2" class="platform-dark"/>
<rect x="318" y="164" width="4" height="2" class="platform-dark"/>

<!-- Platform 3 (mid-right) -->
<rect x="460" y="180" width="90"  height="8"  class="platform-top"/>
<rect x="460" y="188" width="90"  height="12" class="platform"/>
<rect x="460" y="196" width="90"  height="4"  class="platform-dark"/>
<rect x="464" y="179" width="4" height="2" class="platform-dark"/>
<rect x="478" y="179" width="4" height="2" class="platform-dark"/>
<rect x="492" y="179" width="4" height="2" class="platform-dark"/>
<rect x="506" y="179" width="4" height="2" class="platform-dark"/>
<rect x="520" y="179" width="4" height="2" class="platform-dark"/>
<rect x="534" y="179" width="4" height="2" class="platform-dark"/>

<!-- ══════════════════════════════════════════ -->
<!--  COLLECTIBLE CODE BLOCKS (floating ?)     -->
<!-- ══════════════════════════════════════════ -->

<!-- Block set 1 — above platform 1 -->
<g class="code-block" style="transform-origin: 110px 162px">
  <rect x="98"  y="158" width="18" height="18" class="q-block" rx="2"/>
  <text x="107" y="171" class="q-text" text-anchor="middle">&lt;/&gt;</text>
</g>
<g class="code-block2" style="transform-origin: 130px 162px">
  <rect x="120" y="158" width="18" height="18" class="q-block" rx="2"/>
  <text x="129" y="171" class="q-text" text-anchor="middle">{ }</text>
</g>
<g class="code-block3" style="transform-origin: 152px 162px">
  <rect x="142" y="158" width="18" height="18" class="q-block" rx="2"/>
  <text x="151" y="171" class="q-text" text-anchor="middle">( )</text>
</g>

<!-- Block set 2 — above platform 2 -->
<g class="code-block2" style="transform-origin: 268px 132px">
  <rect x="256" y="128" width="18" height="18" class="q-block" rx="2"/>
  <text x="265" y="141" class="q-text" text-anchor="middle">AI</text>
</g>
<g class="code-block" style="transform-origin: 292px 132px">
  <rect x="280" y="128" width="18" height="18" class="q-block" rx="2"/>
  <text x="289" y="141" class="q-text" text-anchor="middle">JS</text>
</g>
<g class="code-block3" style="transform-origin: 316px 132px">
  <rect x="304" y="128" width="18" height="18" class="q-block" rx="2"/>
  <text x="313" y="141" class="q-text" text-anchor="middle">TS</text>
</g>

<!-- Block set 3 — above platform 3 -->
<g class="code-block" style="transform-origin: 490px 148px">
  <rect x="478" y="144" width="18" height="18" class="q-block" rx="2"/>
  <text x="487" y="157" class="q-text" text-anchor="middle">PY</text>
</g>
<g class="code-block3" style="transform-origin: 514px 148px">
  <rect x="502" y="144" width="18" height="18" class="q-block" rx="2"/>
  <text x="511" y="157" class="q-text" text-anchor="middle">DB</text>
</g>
<g class="code-block2" style="transform-origin: 538px 148px">
  <rect x="526" y="144" width="18" height="18" class="q-block" rx="2"/>
  <text x="535" y="157" class="q-text" text-anchor="middle">⚡</text>
</g>

<!-- ══════════════════════════════════════════ -->
<!--  BUG ENEMY (on platform 1)                -->
<!-- ══════════════════════════════════════════ -->
<g class="bug">
  <!-- Bug body — a "bug/error" monster -->
  <rect x="92"  y="178" width="20" height="16" fill="#cc2200" rx="2"/>
  <!-- eyes -->
  <rect x="95"  y="181" width="4"  height="4"  fill="#ffffff"/>
  <rect x="105" y="181" width="4"  height="4"  fill="#ffffff"/>
  <rect x="96"  y="182" width="2"  height="2"  fill="#0d0d0d"/>
  <rect x="106" y="182" width="2"  height="2"  fill="#0d0d0d"/>
  <!-- antennae -->
  <line x1="97"  y1="178" x2="94"  y2="172" stroke="#cc2200" stroke-width="1.5"/>
  <line x1="107" y1="178" x2="110" y2="172" stroke="#cc2200" stroke-width="1.5"/>
  <circle cx="94"  cy="172" r="2" fill="#ff3300"/>
  <circle cx="110" cy="172" r="2" fill="#ff3300"/>
  <!-- legs -->
  <line x1="96"  y1="192" x2="92"  y2="198" stroke="#cc2200" stroke-width="1.5"/>
  <line x1="102" y1="194" x2="102" y2="200" stroke="#cc2200" stroke-width="1.5"/>
  <line x1="108" y1="192" x2="112" y2="198" stroke="#cc2200" stroke-width="1.5"/>
  <!-- label -->
  <text x="102" y="208" class="pixel-small" text-anchor="middle" fill="#cc2200" font-size="8">BUG</text>
</g>

<!-- ══════════════════════════════════════════ -->
<!--  COINS / SCORE ITEMS                      -->
<!-- ══════════════════════════════════════════ -->
<!-- coin trail near character area -->
<g style="transform-origin: 395px 215px" class="coin">
  <ellipse cx="395" cy="215" rx="7" ry="7" fill="#F5A623"/>
  <ellipse cx="395" cy="215" rx="4" ry="7" fill="#ffbe4d"/>
  <text x="395" y="219" class="q-text" text-anchor="middle" font-size="8">$</text>
</g>
<g style="transform-origin: 415px 215px" class="coin" style="animation-delay:0.15s">
  <ellipse cx="415" cy="215" rx="7" ry="7" fill="#F5A623"/>
  <ellipse cx="415" cy="215" rx="4" ry="7" fill="#ffbe4d"/>
  <text x="415" y="219" class="q-text" text-anchor="middle" font-size="8">$</text>
</g>
<g style="transform-origin: 435px 215px" class="coin" style="animation-delay:0.3s">
  <ellipse cx="435" cy="215" rx="7" ry="7" fill="#F5A623"/>
  <ellipse cx="435" cy="215" rx="4" ry="7" fill="#ffbe4d"/>
  <text x="435" y="219" class="q-text" text-anchor="middle" font-size="8">$</text>
</g>

<!-- ══════════════════════════════════════════ -->
<!--  PIXEL CHARACTER — POG SUDARSHAN          -->
<!--  Running pose at x≈620, ground at y=230   -->
<!-- ══════════════════════════════════════════ -->

<!-- LEFT LEG -->
<g class="leg-l">
  <rect x="628" y="215" width="8"  height="16" class="char-pants"/>
  <rect x="625" y="228" width="10" height="6"  class="char-shoe"/>
</g>
<!-- RIGHT LEG -->
<g class="leg-r">
  <rect x="642" y="215" width="8"  height="16" class="char-pants"/>
  <rect x="640" y="228" width="10" height="6"  class="char-shoe"/>
</g>

<!-- TORSO / SHIRT -->
<rect x="626" y="185" width="26" height="30" class="char-shirt"/>
<!-- Shirt detail: POG logo stripe -->
<rect x="630" y="190" width="18" height="4" fill="#cc8800"/>
<text x="639" y="194" class="q-text" text-anchor="middle" font-size="5" fill="#0d0d0d">POG</text>

<!-- LEFT ARM -->
<g class="arm-l">
  <rect x="618" y="186" width="8"  height="18" class="char-shirt"/>
  <rect x="616" y="202" width="8"  height="6"  class="char-skin"/>
</g>
<!-- RIGHT ARM -->
<g class="arm-r">
  <rect x="652" y="186" width="8"  height="18" class="char-shirt"/>
  <rect x="652" y="202" width="8"  height="6"  class="char-skin"/>
</g>

<!-- HEAD -->
<rect x="626" y="158" width="26" height="26" class="char-skin" rx="3"/>
<!-- HAIR — spiky on top -->
<rect x="626" y="155" width="26" height="8"  class="char-hair" rx="2"/>
<rect x="624" y="157" width="6"  height="6"  class="char-hair" rx="1"/>
<rect x="648" y="157" width="6"  height="6"  class="char-hair" rx="1"/>
<rect x="636" y="151" width="6"  height="8"  class="char-hair" rx="1"/>
<!-- GLASSES frames -->
<rect x="629" y="166" width="8"  height="6"  fill="none" stroke="#0d0d0d" stroke-width="1.5" rx="1"/>
<rect x="640" y="166" width="8"  height="6"  fill="none" stroke="#0d0d0d" stroke-width="1.5" rx="1"/>
<line x1="637" y1="169" x2="640" y2="169" stroke="#0d0d0d" stroke-width="1"/>
<!-- EYES inside glasses -->
<rect x="631" y="168" width="3" height="3" class="char-eye"/>
<rect x="642" y="168" width="3" height="3" class="char-eye"/>
<!-- EAR -->
<rect x="624" y="167" width="3"  height="6" class="char-skin"/>
<rect x="651" y="167" width="3"  height="6" class="char-skin"/>
<!-- MOUTH -->
<rect x="634" y="177" width="10" height="2" fill="#8a5540"/>

<!-- VISOR / CAP -->
<rect x="624" y="154" width="30" height="5"  class="char-visor" rx="1"/>
<rect x="619" y="157" width="10" height="3"  class="char-visor" rx="1"/>

<!-- ══════════════════════════════════════════ -->
<!--  SCROLLING TECH TAGS (background deco)    -->
<!-- ══════════════════════════════════════════ -->
<g class="tag-scroll">
  <rect x="0"   y="60" width="60" height="16" fill="#1a1a1a" rx="3" stroke="#F5A623" stroke-width="0.5"/>
  <text x="30"  y="72" class="pixel-small" text-anchor="middle" fill="#F5A623">Node.js</text>

  <rect x="80"  y="55" width="70" height="16" fill="#1a1a1a" rx="3" stroke="#333" stroke-width="0.5"/>
  <text x="115" y="67" class="pixel-small" text-anchor="middle" fill="#888">PostgreSQL</text>

  <rect x="170" y="62" width="55" height="16" fill="#1a1a1a" rx="3" stroke="#F5A623" stroke-width="0.5"/>
  <text x="197" y="74" class="pixel-small" text-anchor="middle" fill="#F5A623">Flutter</text>

  <rect x="245" y="58" width="60" height="16" fill="#1a1a1a" rx="3" stroke="#333" stroke-width="0.5"/>
  <text x="275" y="70" class="pixel-small" text-anchor="middle" fill="#888">Firebase</text>

  <rect x="325" y="63" width="60" height="16" fill="#1a1a1a" rx="3" stroke="#F5A623" stroke-width="0.5"/>
  <text x="355" y="75" class="pixel-small" text-anchor="middle" fill="#F5A623">Supabase</text>
</g>

<g class="tag-scroll2">
  <rect x="0"   y="75" width="58" height="16" fill="#1a1a1a" rx="3" stroke="#F5A623" stroke-width="0.5"/>
  <text x="29"  y="87" class="pixel-small" text-anchor="middle" fill="#F5A623">ESP32</text>

  <rect x="78"  y="72" width="62" height="16" fill="#1a1a1a" rx="3" stroke="#333" stroke-width="0.5"/>
  <text x="109" y="84" class="pixel-small" text-anchor="middle" fill="#888">Tailwind</text>

  <rect x="160" y="76" width="55" height="16" fill="#1a1a1a" rx="3" stroke="#F5A623" stroke-width="0.5"/>
  <text x="187" y="88" class="pixel-small" text-anchor="middle" fill="#F5A623">TypeScript</text>

  <rect x="235" y="73" width="50" height="16" fill="#1a1a1a" rx="3" stroke="#333" stroke-width="0.5"/>
  <text x="260" y="85" class="pixel-small" text-anchor="middle" fill="#888">Figma</text>
</g>

<!-- ══════════════════════════════════════════ -->
<!--  HUD OVERLAY (top-left)                   -->
<!-- ══════════════════════════════════════════ -->
<!-- Name plate -->
<rect x="10" y="10" width="160" height="30" fill="#0d0d0d" rx="3" stroke="#F5A623" stroke-width="1"/>
<text x="18" y="20" class="pixel-text" font-size="9" fill="#888">PLAYER 1</text>
<text x="18" y="33" class="pixel-text" font-size="13">SUDARSHAN</text>

<!-- Health bar -->
<rect x="10" y="46" width="80" height="10" fill="#0d0d0d" rx="2" stroke="#F5A623" stroke-width="0.8"/>
<rect x="11" y="47" width="76" height="8"  class="hud-fill health-bar" rx="1"/>
<text x="96" y="56" class="pixel-small" fill="#888" font-size="8">HP MAX</text>

<!-- Score -->
<rect x="10" y="62" width="130" height="16" fill="#0d0d0d" rx="2" stroke="#333" stroke-width="0.5"/>
<text x="16" y="74" class="pixel-score">SCORE: 99999</text>

<!-- Level badge -->
<rect x="10" y="84" width="90" height="14" fill="#F5A623" rx="2"/>
<text x="55" y="94" class="pixel-text" font-size="9" fill="#0d0d0d" text-anchor="middle" font-weight="bold">LVL 2 · B.TECH</text>

<!-- ══════════════════════════════════════════ -->
<!--  TITLE TEXT (top center-right)            -->
<!-- ══════════════════════════════════════════ -->
<text x="545" y="35" class="pixel-text" font-size="28" text-anchor="middle" fill="#F5A623" letter-spacing="4">POG</text>
<text x="545" y="55" class="pixel-white" font-family="'Courier New', monospace" font-size="11" text-anchor="middle" letter-spacing="3">SUDARSHAN · BUILDER · CREATOR</text>
<text x="545" y="70" class="pixel-small" text-anchor="middle">Full-Stack · IoT · AI · Open Source</text>

<!-- ══════════════════════════════════════════ -->
<!--  BOTTOM FOOTER TEXT                       -->
<!-- ══════════════════════════════════════════ -->
<rect x="0" y="261" width="900" height="19" fill="#0d0d0d"/>
<text x="450" y="274" class="pixel-small" text-anchor="middle" fill="#555" font-size="9">[ ▶ PRESS START TO COLLABORATE · github.com/Sudarshan-prog · pogpro.in ]</text>

<!-- ══════════════════════════════════════════ -->
<!--  BORDER FRAME                             -->
<!-- ══════════════════════════════════════════ -->
<rect x="1" y="1" width="898" height="278" fill="none" stroke="#F5A623" stroke-width="2" rx="4"/>
<!-- corner pixel accents -->
<rect x="0"   y="0"   width="8" height="8" fill="#F5A623"/>
<rect x="892" y="0"   width="8" height="8" fill="#F5A623"/>
<rect x="0"   y="272" width="8" height="8" fill="#F5A623"/>
<rect x="892" y="272" width="8" height="8" fill="#F5A623"/>

</svg>
