<svg xmlns="http://www.w3.org/2000/svg" viewBox="0 0 900 300" width="900" height="300">
<defs>

  <!-- GROUND SCROLL -->
  <style>
    @keyframes groundScroll {
      from { transform: translateX(0); }
      to   { transform: translateX(-60px); }
    }
    @keyframes cityScroll {
      from { transform: translateX(0); }
      to   { transform: translateX(-900px); }
    }
    @keyframes cityScroll2 {
      from { transform: translateX(0); }
      to   { transform: translateX(-900px); }
    }
    @keyframes platformMove {
      0%   { transform: translateX(0); }
      100% { transform: translateX(-920px); }
    }
    @keyframes platform2Move {
      0%   { transform: translateX(300px); }
      100% { transform: translateX(-620px); }
    }
    @keyframes platform3Move {
      0%   { transform: translateX(600px); }
      100% { transform: translateX(-320px); }
    }
    @keyframes bugMove {
      0%   { transform: translateX(0); }
      100% { transform: translateX(-950px); }
    }
    @keyframes bug2Move {
      0%   { transform: translateX(400px); }
      100% { transform: translateX(-550px); }
    }
    @keyframes coinFloat {
      0%,100% { transform: translateY(0); }
      50%      { transform: translateY(-6px); }
    }
    @keyframes coinMove {
      0%   { transform: translateX(0); }
      100% { transform: translateX(-950px); }
    }
    @keyframes coinMove2 {
      0%   { transform: translateX(350px); }
      100% { transform: translateX(-600px); }
    }
    @keyframes legLRun {
      0%,100% { transform: rotate(-28deg); }
      50%      { transform: rotate(28deg); }
    }
    @keyframes legRRun {
      0%,100% { transform: rotate(28deg); }
      50%      { transform: rotate(-28deg); }
    }
    @keyframes armLRun {
      0%,100% { transform: rotate(22deg); }
      50%      { transform: rotate(-22deg); }
    }
    @keyframes armRRun {
      0%,100% { transform: rotate(-22deg); }
      50%      { transform: rotate(22deg); }
    }
    @keyframes twinkle {
      0%,100% { opacity: 0.15; }
      50%      { opacity: 1; }
    }
    @keyframes twinkleOrange {
      0%,100% { opacity: 0.3; }
      50%      { opacity: 0.9; }
    }
    @keyframes bugLeg {
      0%,100% { transform: rotate(-20deg); }
      50%      { transform: rotate(20deg); }
    }
    @keyframes blockFloat {
      0%,100% { transform: translateY(0px); }
      50%      { transform: translateY(-5px); }
    }
    @keyframes blockGlow {
      0%,100% { opacity: 0.7; }
      50%      { opacity: 1; }
    }
    @keyframes playPulse {
      0%,100% { transform: scale(1);   opacity: 1; }
      50%      { transform: scale(1.06); opacity: 0.85; }
    }
    @keyframes playRingPulse {
      0%   { r: 38; opacity: 0.8; }
      100% { r: 50; opacity: 0; }
    }
    @keyframes scoreCount {
      0%  { opacity:0; transform:translateY(0px); }
      20% { opacity:1; transform:translateY(-4px); }
      80% { opacity:1; transform:translateY(-10px); }
      100%{ opacity:0; transform:translateY(-16px); }
    }
    @keyframes tagScroll {
      from { transform: translateX(920px); }
      to   { transform: translateX(-180px); }
    }
    @keyframes tagScroll2 {
      from { transform: translateX(920px); }
      to   { transform: translateX(-180px); }
    }
    @keyframes jumpArc {
      0%,100% { transform: translateY(0px); }
      25%,75% { transform: translateY(0px); }
      50%      { transform: translateY(-52px); }
    }
    @keyframes winBlink {
      0%,85%,100% { opacity: 0.7; }
      86%,99%     { opacity: 0.08; }
    }
    @keyframes winBlink2 {
      0%,70%,100% { opacity: 0.6; }
      71%,99%     { opacity: 0.05; }
    }
  </style>

  <!-- CLIP for whole SVG -->
  <clipPath id="svgClip">
    <rect width="900" height="300" rx="6"/>
  </clipPath>

</defs>

<!-- ═══════════════════════════════════════════ -->
<!--  ROOT GROUP — everything clipped to border -->
<!-- ═══════════════════════════════════════════ -->
<g clip-path="url(#svgClip)">

<!-- SKY -->
<rect width="900" height="300" fill="#0a0a0a"/>

<!-- STARS — white -->
<circle cx="40"  cy="18" r="1.2" fill="#fff" style="animation:twinkle 2.1s infinite;animation-delay:0s"/>
<circle cx="120" cy="28" r="0.9" fill="#fff" style="animation:twinkle 3.0s infinite;animation-delay:0.4s"/>
<circle cx="210" cy="12" r="1.3" fill="#fff" style="animation:twinkle 2.4s infinite;animation-delay:0.8s"/>
<circle cx="330" cy="22" r="0.9" fill="#fff" style="animation:twinkle 1.8s infinite;animation-delay:0.2s"/>
<circle cx="450" cy="9"  r="1.5" fill="#fff" style="animation:twinkle 2.7s infinite;animation-delay:1.1s"/>
<circle cx="560" cy="20" r="0.9" fill="#fff" style="animation:twinkle 3.2s infinite;animation-delay:0.6s"/>
<circle cx="670" cy="14" r="1.2" fill="#fff" style="animation:twinkle 2.0s infinite;animation-delay:0.3s"/>
<circle cx="780" cy="25" r="0.9" fill="#fff" style="animation:twinkle 2.5s infinite;animation-delay:0.9s"/>
<circle cx="860" cy="10" r="1.3" fill="#fff" style="animation:twinkle 1.9s infinite;animation-delay:0.5s"/>
<circle cx="80"  cy="42" r="0.8" fill="#fff" style="animation:twinkle 2.8s infinite;animation-delay:1.3s"/>
<circle cx="290" cy="38" r="1.0" fill="#fff" style="animation:twinkle 2.2s infinite;animation-delay:0.7s"/>
<circle cx="500" cy="35" r="0.8" fill="#fff" style="animation:twinkle 3.1s infinite;animation-delay:1.5s"/>
<circle cx="730" cy="40" r="1.1" fill="#fff" style="animation:twinkle 2.6s infinite;animation-delay:0.1s"/>

<!-- STARS — orange brand -->
<circle cx="170" cy="32" r="1.0" fill="#F5A623" style="animation:twinkleOrange 2.3s infinite;animation-delay:0.5s"/>
<circle cx="400" cy="16" r="1.2" fill="#F5A623" style="animation:twinkleOrange 3.0s infinite;animation-delay:1.0s"/>
<circle cx="620" cy="28" r="0.9" fill="#F5A623" style="animation:twinkleOrange 2.1s infinite;animation-delay:0.2s"/>
<circle cx="840" cy="18" r="1.1" fill="#F5A623" style="animation:twinkleOrange 2.8s infinite;animation-delay:1.2s"/>

<!-- ═══ FAR BG CITY (very slow, very dark) ═══ -->
<g style="animation: cityScroll 60s linear infinite;">
  <rect x="0"   y="140" width="28" height="105" fill="#0e0e0e"/>
  <rect x="35"  y="155" width="22" height="90"  fill="#0e0e0e"/>
  <rect x="70"  y="130" width="35" height="115" fill="#0e0e0e"/>
  <rect x="115" y="150" width="20" height="95"  fill="#0e0e0e"/>
  <rect x="145" y="138" width="30" height="107" fill="#0e0e0e"/>
  <rect x="185" y="160" width="25" height="85"  fill="#0e0e0e"/>
  <rect x="220" y="125" width="40" height="120" fill="#0e0e0e"/>
  <rect x="270" y="145" width="22" height="100" fill="#0e0e0e"/>
  <rect x="302" y="135" width="35" height="110" fill="#0e0e0e"/>
  <rect x="348" y="155" width="28" height="90"  fill="#0e0e0e"/>
  <rect x="386" y="128" width="32" height="117" fill="#0e0e0e"/>
  <rect x="428" y="148" width="24" height="97"  fill="#0e0e0e"/>
  <rect x="462" y="138" width="38" height="107" fill="#0e0e0e"/>
  <rect x="510" y="152" width="26" height="93"  fill="#0e0e0e"/>
  <rect x="546" y="130" width="30" height="115" fill="#0e0e0e"/>
  <rect x="586" y="145" width="22" height="100" fill="#0e0e0e"/>
  <rect x="618" y="125" width="42" height="120" fill="#0e0e0e"/>
  <rect x="670" y="148" width="28" height="97"  fill="#0e0e0e"/>
  <rect x="708" y="135" width="34" height="110" fill="#0e0e0e"/>
  <rect x="752" y="155" width="20" height="90"  fill="#0e0e0e"/>
  <rect x="782" y="128" width="38" height="117" fill="#0e0e0e"/>
  <rect x="830" y="142" width="26" height="103" fill="#0e0e0e"/>
  <rect x="866" y="130" width="34" height="115" fill="#0e0e0e"/>
  <!-- duplicate for seamless -->
  <rect x="900"  y="140" width="28" height="105" fill="#0e0e0e"/>
  <rect x="935"  y="155" width="22" height="90"  fill="#0e0e0e"/>
  <rect x="970"  y="130" width="35" height="115" fill="#0e0e0e"/>
  <rect x="1015" y="150" width="20" height="95"  fill="#0e0e0e"/>
  <rect x="1045" y="138" width="30" height="107" fill="#0e0e0e"/>
</g>

<!-- ═══ MID CITY (medium speed) ═══ -->
<g style="animation: cityScroll2 28s linear infinite;">
  <rect x="10"  y="160" width="32" height="85"  fill="#111111"/>
  <!-- windows -->
  <rect x="14"  y="165" width="8"  height="6"   fill="#F5A623" style="animation:winBlink 4s steps(1) infinite;animation-delay:0s" opacity="0.6"/>
  <rect x="27"  y="165" width="8"  height="6"   fill="#F5A623" style="animation:winBlink2 3s steps(1) infinite;animation-delay:0.5s" opacity="0.5"/>
  <rect x="14"  y="178" width="8"  height="6"   fill="#F5A623" style="animation:winBlink 5s steps(1) infinite;animation-delay:1s" opacity="0.6"/>
  <rect x="27"  y="178" width="8"  height="6"   fill="#F5A623" style="animation:winBlink2 4s steps(1) infinite;animation-delay:0.2s" opacity="0.5"/>

  <rect x="55"  y="148" width="48" height="97"  fill="#111111"/>
  <rect x="60"  y="154" width="10" height="8"   fill="#F5A623" style="animation:winBlink 3.5s steps(1) infinite;animation-delay:0.3s" opacity="0.6"/>
  <rect x="76"  y="154" width="10" height="8"   fill="#F5A623" style="animation:winBlink2 4.5s steps(1) infinite;animation-delay:0.8s" opacity="0.5"/>
  <rect x="60"  y="170" width="10" height="8"   fill="#F5A623" style="animation:winBlink 3s steps(1) infinite;animation-delay:1.2s" opacity="0.6"/>
  <rect x="76"  y="170" width="10" height="8"   fill="#F5A623" style="animation:winBlink2 5s steps(1) infinite;animation-delay:0.1s" opacity="0.5"/>
  <rect x="60"  y="186" width="10" height="8"   fill="#F5A623" style="animation:winBlink 4s steps(1) infinite;animation-delay:0.6s" opacity="0.6"/>
  <rect x="76"  y="186" width="10" height="8"   fill="#F5A623" style="animation:winBlink2 3.5s steps(1) infinite;animation-delay:0.9s" opacity="0.5"/>

  <rect x="120" y="168" width="36" height="77"  fill="#111111"/>
  <rect x="126" y="174" width="8"  height="6"   fill="#F5A623" style="animation:winBlink 4.2s steps(1) infinite;animation-delay:0.4s" opacity="0.6"/>
  <rect x="140" y="174" width="8"  height="6"   fill="#F5A623" style="animation:winBlink2 3.8s steps(1) infinite;animation-delay:1.1s" opacity="0.5"/>

  <rect x="175" y="152" width="42" height="93"  fill="#111111"/>
  <rect x="180" y="158" width="9"  height="7"   fill="#F5A623" style="animation:winBlink 3.2s steps(1) infinite;animation-delay:0.7s" opacity="0.6"/>
  <rect x="195" y="158" width="9"  height="7"   fill="#F5A623" style="animation:winBlink2 4.8s steps(1) infinite;animation-delay:0.3s" opacity="0.5"/>
  <rect x="180" y="172" width="9"  height="7"   fill="#F5A623" style="animation:winBlink 5.2s steps(1) infinite;animation-delay:1.4s" opacity="0.6"/>
  <rect x="195" y="172" width="9"  height="7"   fill="#F5A623" style="animation:winBlink2 3.6s steps(1) infinite;animation-delay:0.6s" opacity="0.5"/>

  <rect x="240" y="158" width="38" height="87"  fill="#111111"/>
  <rect x="246" y="164" width="9"  height="7"   fill="#F5A623" style="animation:winBlink 4.4s steps(1) infinite;animation-delay:0.2s" opacity="0.6"/>
  <rect x="261" y="164" width="9"  height="7"   fill="#F5A623" style="animation:winBlink2 3.1s steps(1) infinite;animation-delay:0.8s" opacity="0.5"/>

  <rect x="300" y="145" width="50" height="100" fill="#111111"/>
  <rect x="306" y="151" width="10" height="8"   fill="#F5A623" style="animation:winBlink 3.7s steps(1) infinite;animation-delay:1.0s" opacity="0.6"/>
  <rect x="322" y="151" width="10" height="8"   fill="#F5A623" style="animation:winBlink2 4.1s steps(1) infinite;animation-delay:0.4s" opacity="0.5"/>
  <rect x="336" y="151" width="10" height="8"   fill="#F5A623" style="animation:winBlink 5s steps(1) infinite;animation-delay:0.9s" opacity="0.6"/>
  <rect x="306" y="167" width="10" height="8"   fill="#F5A623" style="animation:winBlink2 3.3s steps(1) infinite;animation-delay:0.1s" opacity="0.5"/>
  <rect x="322" y="167" width="10" height="8"   fill="#F5A623" style="animation:winBlink 4.6s steps(1) infinite;animation-delay:1.3s" opacity="0.6"/>

  <rect x="370" y="162" width="34" height="83"  fill="#111111"/>
  <rect x="376" y="168" width="8"  height="6"   fill="#F5A623" style="animation:winBlink2 3.9s steps(1) infinite;animation-delay:0.5s" opacity="0.5"/>
  <rect x="390" y="168" width="8"  height="6"   fill="#F5A623" style="animation:winBlink 4.3s steps(1) infinite;animation-delay:0.2s" opacity="0.6"/>

  <rect x="430" y="150" width="44" height="95"  fill="#111111"/>
  <rect x="436" y="156" width="9"  height="7"   fill="#F5A623" style="animation:winBlink2 4.7s steps(1) infinite;animation-delay:0.7s" opacity="0.5"/>
  <rect x="451" y="156" width="9"  height="7"   fill="#F5A623" style="animation:winBlink 3.4s steps(1) infinite;animation-delay:1.1s" opacity="0.6"/>
  <rect x="436" y="170" width="9"  height="7"   fill="#F5A623" style="animation:winBlink2 5.1s steps(1) infinite;animation-delay:0.3s" opacity="0.5"/>

  <rect x="500" y="155" width="40" height="90"  fill="#111111"/>
  <rect x="506" y="161" width="9"  height="7"   fill="#F5A623" style="animation:winBlink 4.0s steps(1) infinite;animation-delay:0.6s" opacity="0.6"/>
  <rect x="521" y="161" width="9"  height="7"   fill="#F5A623" style="animation:winBlink2 3.5s steps(1) infinite;animation-delay:1.0s" opacity="0.5"/>
  <rect x="506" y="175" width="9"  height="7"   fill="#F5A623" style="animation:winBlink 4.9s steps(1) infinite;animation-delay:0.4s" opacity="0.6"/>

  <rect x="565" y="142" width="52" height="103" fill="#111111"/>
  <rect x="571" y="148" width="11" height="8"   fill="#F5A623" style="animation:winBlink2 3.6s steps(1) infinite;animation-delay:0.8s" opacity="0.5"/>
  <rect x="588" y="148" width="11" height="8"   fill="#F5A623" style="animation:winBlink 4.2s steps(1) infinite;animation-delay:0.2s" opacity="0.6"/>
  <rect x="605" y="148" width="11" height="8"   fill="#F5A623" style="animation:winBlink2 3.0s steps(1) infinite;animation-delay:1.2s" opacity="0.5"/>
  <rect x="571" y="164" width="11" height="8"   fill="#F5A623" style="animation:winBlink 5.3s steps(1) infinite;animation-delay:0.5s" opacity="0.6"/>
  <rect x="588" y="164" width="11" height="8"   fill="#F5A623" style="animation:winBlink2 4.4s steps(1) infinite;animation-delay:0.9s" opacity="0.5"/>

  <rect x="640" y="158" width="36" height="87"  fill="#111111"/>
  <rect x="646" y="164" width="9"  height="7"   fill="#F5A623" style="animation:winBlink 3.8s steps(1) infinite;animation-delay:0.3s" opacity="0.6"/>
  <rect x="661" y="164" width="9"  height="7"   fill="#F5A623" style="animation:winBlink2 4.6s steps(1) infinite;animation-delay:0.7s" opacity="0.5"/>

  <rect x="700" y="148" width="46" height="97"  fill="#111111"/>
  <rect x="706" y="154" width="10" height="8"   fill="#F5A623" style="animation:winBlink 5.0s steps(1) infinite;animation-delay:1.1s" opacity="0.6"/>
  <rect x="722" y="154" width="10" height="8"   fill="#F5A623" style="animation:winBlink2 3.3s steps(1) infinite;animation-delay:0.4s" opacity="0.5"/>
  <rect x="736" y="154" width="10" height="8"   fill="#F5A623" style="animation:winBlink 4.1s steps(1) infinite;animation-delay:0.8s" opacity="0.6"/>

  <rect x="770" y="160" width="38" height="85"  fill="#111111"/>
  <rect x="776" y="166" width="9"  height="7"   fill="#F5A623" style="animation:winBlink2 4.5s steps(1) infinite;animation-delay:0.1s" opacity="0.5"/>
  <rect x="791" y="166" width="9"  height="7"   fill="#F5A623" style="animation:winBlink 3.2s steps(1) infinite;animation-delay:1.4s" opacity="0.6"/>

  <rect x="830" y="145" width="48" height="100" fill="#111111"/>
  <rect x="836" y="151" width="10" height="8"   fill="#F5A623" style="animation:winBlink2 4.8s steps(1) infinite;animation-delay:0.6s" opacity="0.5"/>
  <rect x="852" y="151" width="10" height="8"   fill="#F5A623" style="animation:winBlink 3.6s steps(1) infinite;animation-delay:0.2s" opacity="0.6"/>
  <rect x="836" y="167" width="10" height="8"   fill="#F5A623" style="animation:winBlink2 5.2s steps(1) infinite;animation-delay:1.0s" opacity="0.5"/>

  <!-- seamless duplicates -->
  <rect x="900"  y="160" width="32" height="85" fill="#111111"/>
  <rect x="955"  y="148" width="48" height="97" fill="#111111"/>
  <rect x="1020" y="152" width="42" height="93" fill="#111111"/>
  <rect x="1080" y="145" width="50" height="100" fill="#111111"/>
</g>

<!-- GROUND -->
<rect x="0" y="245" width="900" height="55" fill="#1a1a1a"/>
<rect x="0" y="245" width="900" height="3"  fill="#F5A623"/>

<!-- SCROLLING GROUND DASHES -->
<g style="animation: groundScroll 0.5s linear infinite;">
  <line x1="0"   y1="258" x2="42"  y2="258" stroke="#2a2a2a" stroke-width="1"/>
  <line x1="60"  y1="258" x2="98"  y2="258" stroke="#2a2a2a" stroke-width="1"/>
  <line x1="116" y1="258" x2="154" y2="258" stroke="#2a2a2a" stroke-width="1"/>
  <line x1="172" y1="258" x2="210" y2="258" stroke="#2a2a2a" stroke-width="1"/>
  <line x1="228" y1="258" x2="266" y2="258" stroke="#2a2a2a" stroke-width="1"/>
  <line x1="284" y1="258" x2="322" y2="258" stroke="#2a2a2a" stroke-width="1"/>
  <line x1="340" y1="258" x2="378" y2="258" stroke="#2a2a2a" stroke-width="1"/>
  <line x1="396" y1="258" x2="434" y2="258" stroke="#2a2a2a" stroke-width="1"/>
  <line x1="452" y1="258" x2="490" y2="258" stroke="#2a2a2a" stroke-width="1"/>
  <line x1="508" y1="258" x2="546" y2="258" stroke="#2a2a2a" stroke-width="1"/>
  <line x1="564" y1="258" x2="602" y2="258" stroke="#2a2a2a" stroke-width="1"/>
  <line x1="620" y1="258" x2="658" y2="258" stroke="#2a2a2a" stroke-width="1"/>
  <line x1="676" y1="258" x2="714" y2="258" stroke="#2a2a2a" stroke-width="1"/>
  <line x1="732" y1="258" x2="770" y2="258" stroke="#2a2a2a" stroke-width="1"/>
  <line x1="788" y1="258" x2="826" y2="258" stroke="#2a2a2a" stroke-width="1"/>
  <line x1="844" y1="258" x2="882" y2="258" stroke="#2a2a2a" stroke-width="1"/>
  <line x1="0"   y1="270" x2="30"  y2="270" stroke="#252525" stroke-width="1"/>
  <line x1="50"  y1="270" x2="88"  y2="270" stroke="#252525" stroke-width="1"/>
  <line x1="108" y1="270" x2="146" y2="270" stroke="#252525" stroke-width="1"/>
  <line x1="166" y1="270" x2="208" y2="270" stroke="#252525" stroke-width="1"/>
  <line x1="228" y1="270" x2="266" y2="270" stroke="#252525" stroke-width="1"/>
  <line x1="286" y1="270" x2="330" y2="270" stroke="#252525" stroke-width="1"/>
  <line x1="350" y1="270" x2="390" y2="270" stroke="#252525" stroke-width="1"/>
</g>

<!-- ═══ PLATFORMS ═══ -->
<!-- Platform 1 -->
<g style="animation: platformMove 5s linear infinite;">
  <rect x="420" y="200" width="95"  height="6"  fill="#ffbe4d"/>
  <rect x="420" y="206" width="95"  height="10" fill="#F5A623"/>
  <rect x="420" y="212" width="95"  height="4"  fill="#cc8800"/>
  <rect x="424" y="199" width="5" height="2" fill="#cc8800"/>
  <rect x="438" y="199" width="5" height="2" fill="#cc8800"/>
  <rect x="452" y="199" width="5" height="2" fill="#cc8800"/>
  <rect x="466" y="199" width="5" height="2" fill="#cc8800"/>
  <rect x="480" y="199" width="5" height="2" fill="#cc8800"/>
  <rect x="494" y="199" width="5" height="2" fill="#cc8800"/>
  <!-- Floating code blocks above platform 1 -->
  <g style="animation: blockFloat 1.4s ease-in-out infinite;transform-origin:453px 178px;">
    <rect x="444" y="170" width="18" height="18" fill="#cc8800" rx="2"/>
    <text x="453" y="183" font-family="monospace" font-size="9" fill="#0d0d0d" font-weight="bold" text-anchor="middle">&lt;/&gt;</text>
  </g>
  <g style="animation: blockFloat 1.4s ease-in-out infinite;animation-delay:0.3s;transform-origin:477px 178px;">
    <rect x="468" y="170" width="18" height="18" fill="#cc8800" rx="2"/>
    <text x="477" y="183" font-family="monospace" font-size="9" fill="#0d0d0d" font-weight="bold" text-anchor="middle">JS</text>
  </g>
  <g style="animation: blockFloat 1.4s ease-in-out infinite;animation-delay:0.6s;transform-origin:501px 178px;">
    <rect x="492" y="170" width="18" height="18" fill="#cc8800" rx="2"/>
    <text x="501" y="183" font-family="monospace" font-size="9" fill="#0d0d0d" font-weight="bold" text-anchor="middle">AI</text>
  </g>
</g>

<!-- Platform 2 -->
<g style="animation: platform2Move 5s linear infinite;">
  <rect x="420" y="185" width="80"  height="6"  fill="#ffbe4d"/>
  <rect x="420" y="191" width="80"  height="10" fill="#F5A623"/>
  <rect x="420" y="197" width="80"  height="4"  fill="#cc8800"/>
  <!-- code blocks -->
  <g style="animation: blockFloat 1.6s ease-in-out infinite;transform-origin:447px 163px;">
    <rect x="438" y="155" width="18" height="18" fill="#cc8800" rx="2"/>
    <text x="447" y="168" font-family="monospace" font-size="9" fill="#0d0d0d" font-weight="bold" text-anchor="middle">TS</text>
  </g>
  <g style="animation: blockFloat 1.6s ease-in-out infinite;animation-delay:0.4s;transform-origin:471px 163px;">
    <rect x="462" y="155" width="18" height="18" fill="#cc8800" rx="2"/>
    <text x="471" y="168" font-family="monospace" font-size="9" fill="#0d0d0d" font-weight="bold" text-anchor="middle">⚡</text>
  </g>
</g>

<!-- Platform 3 -->
<g style="animation: platform3Move 5s linear infinite;">
  <rect x="420" y="192" width="100" height="6"  fill="#ffbe4d"/>
  <rect x="420" y="198" width="100" height="10" fill="#F5A623"/>
  <rect x="420" y="204" width="100" height="4"  fill="#cc8800"/>
  <g style="animation: blockFloat 1.2s ease-in-out infinite;transform-origin:453px 170px;">
    <rect x="444" y="162" width="18" height="18" fill="#cc8800" rx="2"/>
    <text x="453" y="175" font-family="monospace" font-size="9" fill="#0d0d0d" font-weight="bold" text-anchor="middle">PY</text>
  </g>
  <g style="animation: blockFloat 1.2s ease-in-out infinite;animation-delay:0.5s;transform-origin:477px 170px;">
    <rect x="468" y="162" width="18" height="18" fill="#cc8800" rx="2"/>
    <text x="477" y="175" font-family="monospace" font-size="9" fill="#0d0d0d" font-weight="bold" text-anchor="middle">{ }</text>
  </g>
</g>

<!-- ═══ BUG ENEMIES ═══ -->
<g style="animation: bugMove 4.2s linear infinite;">
  <rect x="550" y="216" width="22" height="28" fill="#cc2200" rx="2"/>
  <rect x="553" y="220" width="5"  height="5"  fill="#fff"/>
  <rect x="564" y="220" width="5"  height="5"  fill="#fff"/>
  <rect x="554" y="221" width="3"  height="3"  fill="#0d0d0d"/>
  <rect x="565" y="221" width="3"  height="3"  fill="#0d0d0d"/>
  <line x1="556" y1="216" x2="553" y2="208" stroke="#cc2200" stroke-width="1.5"/>
  <line x1="566" y1="216" x2="569" y2="208" stroke="#cc2200" stroke-width="1.5"/>
  <circle cx="553" cy="208" r="2.5" fill="#ff3300"/>
  <circle cx="569" cy="208" r="2.5" fill="#ff3300"/>
  <!-- animated legs -->
  <g style="animation: bugLeg 0.3s ease-in-out infinite; transform-origin:553px 235px;">
    <line x1="553" y1="232" x2="547" y2="240" stroke="#cc2200" stroke-width="1.5"/>
  </g>
  <line x1="561" y1="244" x2="561" y2="244" stroke="#cc2200" stroke-width="1.5"/>
  <g style="animation: bugLeg 0.3s ease-in-out infinite reverse; transform-origin:569px 235px;">
    <line x1="569" y1="232" x2="575" y2="240" stroke="#cc2200" stroke-width="1.5"/>
  </g>
  <text x="561" y="251" font-family="monospace" font-size="7" fill="#cc2200" text-anchor="middle" font-weight="bold">BUG</text>
</g>

<g style="animation: bug2Move 4.2s linear infinite;">
  <rect x="550" y="216" width="22" height="28" fill="#cc2200" rx="2"/>
  <rect x="553" y="220" width="5"  height="5"  fill="#fff"/>
  <rect x="564" y="220" width="5"  height="5"  fill="#fff"/>
  <rect x="554" y="221" width="3"  height="3"  fill="#0d0d0d"/>
  <rect x="565" y="221" width="3"  height="3"  fill="#0d0d0d"/>
  <line x1="556" y1="216" x2="553" y2="208" stroke="#cc2200" stroke-width="1.5"/>
  <line x1="566" y1="216" x2="569" y2="208" stroke="#cc2200" stroke-width="1.5"/>
  <circle cx="553" cy="208" r="2.5" fill="#ff3300"/>
  <circle cx="569" cy="208" r="2.5" fill="#ff3300"/>
  <g style="animation: bugLeg 0.3s ease-in-out infinite; transform-origin:553px 235px;">
    <line x1="553" y1="232" x2="547" y2="240" stroke="#cc2200" stroke-width="1.5"/>
  </g>
  <g style="animation: bugLeg 0.3s ease-in-out infinite reverse; transform-origin:569px 235px;">
    <line x1="569" y1="232" x2="575" y2="240" stroke="#cc2200" stroke-width="1.5"/>
  </g>
  <text x="561" y="251" font-family="monospace" font-size="7" fill="#cc2200" text-anchor="middle" font-weight="bold">BUG</text>
</g>

<!-- ═══ COINS ═══ -->
<g style="animation: coinMove 3.8s linear infinite;">
  <g style="animation: coinFloat 0.8s ease-in-out infinite; transform-origin:620px 230px;">
    <ellipse cx="620" cy="230" rx="8" ry="8" fill="#F5A623"/>
    <ellipse cx="620" cy="230" rx="5" ry="8" fill="#ffbe4d"/>
    <text x="620" y="234" font-family="monospace" font-size="8" fill="#0d0d0d" font-weight="bold" text-anchor="middle">$</text>
  </g>
  <g style="animation: coinFloat 0.8s ease-in-out infinite;animation-delay:0.15s; transform-origin:642px 230px;">
    <ellipse cx="642" cy="230" rx="8" ry="8" fill="#F5A623"/>
    <ellipse cx="642" cy="230" rx="5" ry="8" fill="#ffbe4d"/>
    <text x="642" y="234" font-family="monospace" font-size="8" fill="#0d0d0d" font-weight="bold" text-anchor="middle">$</text>
  </g>
  <g style="animation: coinFloat 0.8s ease-in-out infinite;animation-delay:0.3s; transform-origin:664px 230px;">
    <ellipse cx="664" cy="230" rx="8" ry="8" fill="#F5A623"/>
    <ellipse cx="664" cy="230" rx="5" ry="8" fill="#ffbe4d"/>
    <text x="664" y="234" font-family="monospace" font-size="8" fill="#0d0d0d" font-weight="bold" text-anchor="middle">$</text>
  </g>
</g>

<g style="animation: coinMove2 3.8s linear infinite;">
  <g style="animation: coinFloat 0.8s ease-in-out infinite;animation-delay:0.2s; transform-origin:620px 230px;">
    <ellipse cx="620" cy="230" rx="8" ry="8" fill="#F5A623"/>
    <ellipse cx="620" cy="230" rx="5" ry="8" fill="#ffbe4d"/>
    <text x="620" y="234" font-family="monospace" font-size="8" fill="#0d0d0d" font-weight="bold" text-anchor="middle">$</text>
  </g>
</g>

<!-- ═══ PLAYER — with jump arc ═══ -->
<g style="animation: jumpArc 3.2s ease-in-out infinite; transform-origin: 160px 197px;">

  <!-- LEFT LEG -->
  <g style="animation: legLRun 0.35s steps(1) infinite; transform-origin:164px 228px;">
    <rect x="158" y="213" width="9"  height="18" fill="#222"/>
    <rect x="155" y="228" width="12" height="6"  fill="#0d0d0d"/>
  </g>
  <!-- RIGHT LEG -->
  <g style="animation: legRRun 0.35s steps(1) infinite; transform-origin:176px 228px;">
    <rect x="172" y="213" width="9"  height="18" fill="#222"/>
    <rect x="170" y="228" width="12" height="6"  fill="#0d0d0d"/>
  </g>

  <!-- TORSO -->
  <rect x="154" y="193" width="30" height="22" fill="#F5A623"/>
  <rect x="158" y="197" width="22" height="5"  fill="#cc8800"/>
  <text x="169" y="202" font-family="monospace" font-size="6" fill="#0d0d0d" font-weight="bold" text-anchor="middle">POG</text>

  <!-- LEFT ARM -->
  <g style="animation: armLRun 0.35s steps(1) infinite; transform-origin:150px 200px;">
    <rect x="144" y="193" width="9"  height="18" fill="#F5A623"/>
    <rect x="142" y="208" width="9"  height="7"  fill="#c8956c"/>
  </g>
  <!-- RIGHT ARM -->
  <g style="animation: armRRun 0.35s steps(1) infinite; transform-origin:186px 200px;">
    <rect x="183" y="193" width="9"  height="18" fill="#F5A623"/>
    <rect x="183" y="208" width="9"  height="7"  fill="#c8956c"/>
  </g>

  <!-- HEAD -->
  <rect x="154" y="166" width="30" height="28" fill="#c8956c" rx="3"/>
  <!-- HAIR -->
  <rect x="154" y="163" width="30" height="10" fill="#1a1a1a" rx="2"/>
  <rect x="151" y="165" width="7"  height="7"  fill="#1a1a1a" rx="1"/>
  <rect x="176" y="165" width="7"  height="7"  fill="#1a1a1a" rx="1"/>
  <rect x="165" y="158" width="8"  height="10" fill="#1a1a1a" rx="1"/>
  <!-- GLASSES -->
  <rect x="157" y="175" width="9"  height="7"  fill="rgba(100,200,255,0.12)" rx="1" stroke="#0d0d0d" stroke-width="1.5"/>
  <rect x="169" y="175" width="9"  height="7"  fill="rgba(100,200,255,0.12)" rx="1" stroke="#0d0d0d" stroke-width="1.5"/>
  <line x1="166" y1="178" x2="169" y2="178" stroke="#0d0d0d" stroke-width="1"/>
  <!-- EYES -->
  <rect x="159" y="177" width="4"  height="4"  fill="#0d0d0d"/>
  <rect x="171" y="177" width="4"  height="4"  fill="#0d0d0d"/>
  <!-- EARS -->
  <rect x="151" y="174" width="4"  height="7"  fill="#c8956c"/>
  <rect x="183" y="174" width="4"  height="7"  fill="#c8956c"/>
  <!-- CAP -->
  <rect x="151" y="162" width="36" height="6"  fill="#0d0d0d" rx="1"/>
  <rect x="145" y="166" width="12" height="4"  fill="#0d0d0d" rx="1"/>
  <!-- JUMP EFFECT — small star burst at feet -->
  <circle cx="169" cy="242" r="3"  fill="#F5A623" opacity="0.5" style="animation:coinFloat 0.35s ease-in-out infinite"/>
  <circle cx="157" cy="244" r="2"  fill="#F5A623" opacity="0.3" style="animation:coinFloat 0.35s ease-in-out infinite;animation-delay:0.1s"/>
  <circle cx="181" cy="244" r="2"  fill="#F5A623" opacity="0.3" style="animation:coinFloat 0.35s ease-in-out infinite;animation-delay:0.2s"/>
</g>

<!-- ═══ SCROLLING TECH TAGS ═══ -->
<g style="animation: tagScroll 10s linear infinite;">
  <rect x="0"   y="60" width="64" height="16" fill="#1a1a1a" rx="3" stroke="#F5A623" stroke-width="0.6"/>
  <text x="32"  y="72" font-family="'Courier New',monospace" font-size="9" fill="#F5A623" font-weight="bold" text-anchor="middle">Node.js</text>
  <rect x="80"  y="55" width="76" height="16" fill="#1a1a1a" rx="3" stroke="#444"    stroke-width="0.6"/>
  <text x="118" y="67" font-family="'Courier New',monospace" font-size="9" fill="#888" font-weight="bold" text-anchor="middle">PostgreSQL</text>
  <rect x="172" y="62" width="58" height="16" fill="#1a1a1a" rx="3" stroke="#F5A623" stroke-width="0.6"/>
  <text x="201" y="74" font-family="'Courier New',monospace" font-size="9" fill="#F5A623" font-weight="bold" text-anchor="middle">Flutter</text>
  <rect x="246" y="57" width="66" height="16" fill="#1a1a1a" rx="3" stroke="#444"    stroke-width="0.6"/>
  <text x="279" y="69" font-family="'Courier New',monospace" font-size="9" fill="#888" font-weight="bold" text-anchor="middle">Firebase</text>
  <rect x="328" y="63" width="68" height="16" fill="#1a1a1a" rx="3" stroke="#F5A623" stroke-width="0.6"/>
  <text x="362" y="75" font-family="'Courier New',monospace" font-size="9" fill="#F5A623" font-weight="bold" text-anchor="middle">Supabase</text>
  <rect x="412" y="58" width="54" height="16" fill="#1a1a1a" rx="3" stroke="#444"    stroke-width="0.6"/>
  <text x="439" y="70" font-family="'Courier New',monospace" font-size="9" fill="#888" font-weight="bold" text-anchor="middle">ESP32</text>
  <rect x="482" y="63" width="72" height="16" fill="#1a1a1a" rx="3" stroke="#F5A623" stroke-width="0.6"/>
  <text x="518" y="75" font-family="'Courier New',monospace" font-size="9" fill="#F5A623" font-weight="bold" text-anchor="middle">TypeScript</text>
  <rect x="570" y="57" width="62" height="16" fill="#1a1a1a" rx="3" stroke="#444"    stroke-width="0.6"/>
  <text x="601" y="69" font-family="'Courier New',monospace" font-size="9" fill="#888" font-weight="bold" text-anchor="middle">Tailwind</text>
  <rect x="648" y="62" width="54" height="16" fill="#1a1a1a" rx="3" stroke="#F5A623" stroke-width="0.6"/>
  <text x="675" y="74" font-family="'Courier New',monospace" font-size="9" fill="#F5A623" font-weight="bold" text-anchor="middle">Python</text>
  <rect x="718" y="58" width="52" height="16" fill="#1a1a1a" rx="3" stroke="#444"    stroke-width="0.6"/>
  <text x="744" y="70" font-family="'Courier New',monospace" font-size="9" fill="#888" font-weight="bold" text-anchor="middle">Figma</text>
  <rect x="786" y="63" width="70" height="16" fill="#1a1a1a" rx="3" stroke="#F5A623" stroke-width="0.6"/>
  <text x="821" y="75" font-family="'Courier New',monospace" font-size="9" fill="#F5A623" font-weight="bold" text-anchor="middle">React</text>
</g>

<!-- ═══ HUD ═══ -->
<rect x="10" y="10" width="168" height="34" fill="#0d0d0d" rx="3" stroke="#F5A623" stroke-width="1"/>
<text x="18" y="22" font-family="'Courier New',monospace" font-size="8"  fill="#666" font-weight="bold">PLAYER 1</text>
<text x="18" y="36" font-family="'Courier New',monospace" font-size="13" fill="#F5A623" font-weight="bold">SUDARSHAN</text>

<rect x="10" y="50" width="82" height="10" fill="#0d0d0d" rx="2" stroke="#F5A623" stroke-width="0.8"/>
<rect x="11" y="51" width="78" height="8"  fill="#F5A623" rx="1" style="animation:blockGlow 1s ease-in-out infinite"/>
<text x="98" y="59" font-family="'Courier New',monospace" font-size="8" fill="#888">HP MAX</text>

<rect x="10" y="66" width="138" height="14" fill="#0d0d0d" rx="2" stroke="#444" stroke-width="0.5"/>
<text x="16" y="77" font-family="'Courier New',monospace" font-size="11" fill="#F5A623" font-weight="bold">SCORE: 04820</text>

<rect x="10" y="86" width="120" height="14" fill="#F5A623" rx="2"/>
<text x="70" y="97" font-family="'Courier New',monospace" font-size="9" fill="#0d0d0d" font-weight="bold" text-anchor="middle">LVL 2 · B.TECH</text>

<!-- ═══ TITLE ═══ -->
<text x="545" y="38" font-family="'Courier New',monospace" font-size="30" fill="#F5A623" font-weight="bold" text-anchor="middle" letter-spacing="6">POG</text>
<text x="545" y="57" font-family="'Courier New',monospace" font-size="11" fill="#ffffff" font-weight="bold" text-anchor="middle" letter-spacing="3">SUDARSHAN · BUILDER · CREATOR</text>
<text x="545" y="72" font-family="'Courier New',monospace" font-size="9"  fill="#888" text-anchor="middle">Full-Stack · IoT · AI · Open Source</text>

<!-- ═══ CLICK TO PLAY BUTTON — pulsing ═══ -->
<!-- Ripple ring -->
<circle cx="545" cy="152" r="38" fill="none" stroke="#F5A623" stroke-width="1.5" opacity="0.6"
  style="animation: playRingPulse 1.5s ease-out infinite"/>
<!-- Button bg -->
<circle cx="545" cy="152" r="38" fill="#0d0d0d" stroke="#F5A623" stroke-width="2"
  style="animation: playPulse 1.5s ease-in-out infinite"/>
<!-- Play triangle -->
<polygon points="535,138 535,166 561,152" fill="#F5A623"
  style="animation: playPulse 1.5s ease-in-out infinite"/>
<!-- PLAY text -->
<text x="545" y="184" font-family="'Courier New',monospace" font-size="10" fill="#F5A623" font-weight="bold" text-anchor="middle" letter-spacing="2"
  style="animation: playPulse 1.5s ease-in-out infinite">▶ CLICK TO PLAY</text>

<!-- ═══ FOOTER BAR ═══ -->
<rect x="0" y="283" width="900" height="17" fill="#0d0d0d"/>
<text x="450" y="294" font-family="'Courier New',monospace" font-size="8" fill="#555" text-anchor="middle">[ ▶ PRESS START TO COLLABORATE · github.com/Sudarshan-prog · pogpro.in ]</text>

<!-- ═══ BORDER + CORNERS ═══ -->
<rect x="1" y="1" width="898" height="298" fill="none" stroke="#F5A623" stroke-width="2" rx="5"/>
<rect x="0"   y="0"   width="9" height="9" fill="#F5A623"/>
<rect x="891" y="0"   width="9" height="9" fill="#F5A623"/>
<rect x="0"   y="291" width="9" height="9" fill="#F5A623"/>
<rect x="891" y="291" width="9" height="9" fill="#F5A623"/>

</g>
<!-- END CLIP -->

</svg>
