<svg xmlns="http://www.w3.org/2000/svg" viewBox="0 0 900 300" width="900" height="300">
<defs>
  <style>
    @keyframes groundScroll{from{transform:translateX(0)}to{transform:translateX(-60px)}}
    @keyframes cityFar{from{transform:translateX(0)}to{transform:translateX(-900px)}}
    @keyframes cityMid{from{transform:translateX(0)}to{transform:translateX(-900px)}}
    @keyframes platformMove{0%{transform:translateX(0)}100%{transform:translateX(-920px)}}
    @keyframes platform2Move{0%{transform:translateX(300px)}100%{transform:translateX(-620px)}}
    @keyframes platform3Move{0%{transform:translateX(600px)}100%{transform:translateX(-320px)}}
    @keyframes bugMove{0%{transform:translateX(0)}100%{transform:translateX(-950px)}}
    @keyframes bug2Move{0%{transform:translateX(400px)}100%{transform:translateX(-550px)}}
    @keyframes coinMove{0%{transform:translateX(0)}100%{transform:translateX(-950px)}}
    @keyframes coinMove2{0%{transform:translateX(350px)}100%{transform:translateX(-600px)}}
    @keyframes legLRun{0%,100%{transform:rotate(-28deg)}50%{transform:rotate(28deg)}}
    @keyframes legRRun{0%,100%{transform:rotate(28deg)}50%{transform:rotate(-28deg)}}
    @keyframes armLRun{0%,100%{transform:rotate(22deg)}50%{transform:rotate(-22deg)}}
    @keyframes armRRun{0%,100%{transform:rotate(-22deg)}50%{transform:rotate(22deg)}}
    @keyframes twinkle{0%,100%{opacity:.15}50%{opacity:1}}
    @keyframes twinkleO{0%,100%{opacity:.3}50%{opacity:.9}}
    @keyframes bugLeg{0%,100%{transform:rotate(-20deg)}50%{transform:rotate(20deg)}}
    @keyframes blockFloat{0%,100%{transform:translateY(0)}50%{transform:translateY(-5px)}}
    @keyframes hpGlow{0%,100%{opacity:.75}50%{opacity:1}}
    @keyframes coinFloat{0%,100%{transform:translateY(0)}50%{transform:translateY(-6px)}}
    @keyframes tagScroll{from{transform:translateX(920px)}to{transform:translateX(-200px)}}
    @keyframes jumpArc{0%,25%,100%{transform:translateY(0)}50%{transform:translateY(-52px)}75%,100%{transform:translateY(0)}}
    @keyframes winBlink{0%,85%,100%{opacity:.65}86%,99%{opacity:.07}}
    @keyframes winBlink2{0%,70%,100%{opacity:.55}71%,99%{opacity:.05}}
    /* PLAY BUTTON — fixed, slow pulse only */
    @keyframes playGlow{0%,100%{opacity:.55;r:42}50%{opacity:.0;r:56}}
    @keyframes playPulse{0%,100%{opacity:1;transform:scale(1)}50%{opacity:.88;transform:scale(1.04)}}
    @keyframes playTriangle{0%,100%{opacity:1}50%{opacity:.8}}
  </style>
  <clipPath id="cl"><rect width="900" height="300" rx="6"/></clipPath>
</defs>

<g clip-path="url(#cl)">

<!-- SKY -->
<rect width="900" height="300" fill="#0a0a0a"/>

<!-- STARS -->
<circle cx="40"  cy="18" r="1.2" fill="#fff" style="animation:twinkle 2.1s infinite"/>
<circle cx="120" cy="28" r=".9"  fill="#fff" style="animation:twinkle 3.0s infinite;animation-delay:.4s"/>
<circle cx="210" cy="12" r="1.3" fill="#fff" style="animation:twinkle 2.4s infinite;animation-delay:.8s"/>
<circle cx="330" cy="22" r=".9"  fill="#fff" style="animation:twinkle 1.8s infinite;animation-delay:.2s"/>
<circle cx="450" cy="9"  r="1.5" fill="#fff" style="animation:twinkle 2.7s infinite;animation-delay:1.1s"/>
<circle cx="560" cy="20" r=".9"  fill="#fff" style="animation:twinkle 3.2s infinite;animation-delay:.6s"/>
<circle cx="670" cy="14" r="1.2" fill="#fff" style="animation:twinkle 2.0s infinite;animation-delay:.3s"/>
<circle cx="780" cy="25" r=".9"  fill="#fff" style="animation:twinkle 2.5s infinite;animation-delay:.9s"/>
<circle cx="860" cy="10" r="1.3" fill="#fff" style="animation:twinkle 1.9s infinite;animation-delay:.5s"/>
<circle cx="80"  cy="42" r=".8"  fill="#fff" style="animation:twinkle 2.8s infinite;animation-delay:1.3s"/>
<circle cx="170" cy="32" r="1.0" fill="#F5A623" style="animation:twinkleO 2.3s infinite;animation-delay:.5s"/>
<circle cx="400" cy="16" r="1.2" fill="#F5A623" style="animation:twinkleO 3.0s infinite;animation-delay:1.0s"/>
<circle cx="620" cy="28" r=".9"  fill="#F5A623" style="animation:twinkleO 2.1s infinite;animation-delay:.2s"/>
<circle cx="840" cy="18" r="1.1" fill="#F5A623" style="animation:twinkleO 2.8s infinite;animation-delay:1.2s"/>

<!-- FAR CITY (very slow, darkest) -->
<g style="animation:cityFar 70s linear infinite">
  <rect x="0"   y="148" width="28" height="97"  fill="#0e0e0e"/>
  <rect x="38"  y="160" width="22" height="85"  fill="#0e0e0e"/>
  <rect x="72"  y="135" width="35" height="110" fill="#0e0e0e"/>
  <rect x="118" y="155" width="20" height="90"  fill="#0e0e0e"/>
  <rect x="148" y="142" width="30" height="103" fill="#0e0e0e"/>
  <rect x="190" y="164" width="25" height="81"  fill="#0e0e0e"/>
  <rect x="226" y="130" width="40" height="115" fill="#0e0e0e"/>
  <rect x="278" y="149" width="22" height="96"  fill="#0e0e0e"/>
  <rect x="310" y="140" width="35" height="105" fill="#0e0e0e"/>
  <rect x="358" y="157" width="28" height="88"  fill="#0e0e0e"/>
  <rect x="398" y="132" width="32" height="113" fill="#0e0e0e"/>
  <rect x="442" y="152" width="24" height="93"  fill="#0e0e0e"/>
  <rect x="478" y="142" width="38" height="103" fill="#0e0e0e"/>
  <rect x="528" y="156" width="26" height="89"  fill="#0e0e0e"/>
  <rect x="566" y="134" width="30" height="111" fill="#0e0e0e"/>
  <rect x="608" y="149" width="22" height="96"  fill="#0e0e0e"/>
  <rect x="642" y="130" width="42" height="115" fill="#0e0e0e"/>
  <rect x="696" y="152" width="28" height="93"  fill="#0e0e0e"/>
  <rect x="736" y="140" width="34" height="105" fill="#0e0e0e"/>
  <rect x="782" y="159" width="20" height="86"  fill="#0e0e0e"/>
  <rect x="814" y="132" width="38" height="113" fill="#0e0e0e"/>
  <rect x="864" y="146" width="26" height="99"  fill="#0e0e0e"/>
  <!-- seamless -->
  <rect x="900" y="148" width="28" height="97"  fill="#0e0e0e"/>
  <rect x="950" y="135" width="35" height="110" fill="#0e0e0e"/>
  <rect x="1000" y="155" width="20" height="90" fill="#0e0e0e"/>
</g>

<!-- MID CITY (medium speed, blinking windows) -->
<g style="animation:cityMid 30s linear infinite">
  <rect x="10"  y="163" width="32" height="82"  fill="#111"/>
  <rect x="14"  y="168" width="8"  height="6"   fill="#F5A623" opacity=".6" style="animation:winBlink 4s steps(1) infinite"/>
  <rect x="27"  y="168" width="8"  height="6"   fill="#F5A623" opacity=".5" style="animation:winBlink2 3s steps(1) infinite;animation-delay:.5s"/>
  <rect x="14"  y="181" width="8"  height="6"   fill="#F5A623" opacity=".6" style="animation:winBlink 5s steps(1) infinite;animation-delay:1s"/>

  <rect x="55"  y="151" width="48" height="94"  fill="#111"/>
  <rect x="60"  y="157" width="10" height="8"   fill="#F5A623" opacity=".6" style="animation:winBlink 3.5s steps(1) infinite;animation-delay:.3s"/>
  <rect x="76"  y="157" width="10" height="8"   fill="#F5A623" opacity=".5" style="animation:winBlink2 4.5s steps(1) infinite;animation-delay:.8s"/>
  <rect x="60"  y="173" width="10" height="8"   fill="#F5A623" opacity=".6" style="animation:winBlink 3s steps(1) infinite;animation-delay:1.2s"/>
  <rect x="76"  y="173" width="10" height="8"   fill="#F5A623" opacity=".5" style="animation:winBlink2 5s steps(1) infinite;animation-delay:.1s"/>

  <rect x="120" y="171" width="36" height="74"  fill="#111"/>
  <rect x="126" y="177" width="8"  height="6"   fill="#F5A623" opacity=".6" style="animation:winBlink 4.2s steps(1) infinite;animation-delay:.4s"/>

  <rect x="176" y="155" width="42" height="90"  fill="#111"/>
  <rect x="181" y="161" width="9"  height="7"   fill="#F5A623" opacity=".6" style="animation:winBlink 3.2s steps(1) infinite;animation-delay:.7s"/>
  <rect x="196" y="161" width="9"  height="7"   fill="#F5A623" opacity=".5" style="animation:winBlink2 4.8s steps(1) infinite;animation-delay:.3s"/>
  <rect x="181" y="175" width="9"  height="7"   fill="#F5A623" opacity=".6" style="animation:winBlink 5.2s steps(1) infinite;animation-delay:1.4s"/>

  <rect x="242" y="161" width="38" height="84"  fill="#111"/>
  <rect x="247" y="167" width="9"  height="7"   fill="#F5A623" opacity=".6" style="animation:winBlink 4.4s steps(1) infinite;animation-delay:.2s"/>

  <rect x="302" y="148" width="50" height="97"  fill="#111"/>
  <rect x="307" y="154" width="10" height="8"   fill="#F5A623" opacity=".6" style="animation:winBlink 3.7s steps(1) infinite;animation-delay:1s"/>
  <rect x="323" y="154" width="10" height="8"   fill="#F5A623" opacity=".5" style="animation:winBlink2 4.1s steps(1) infinite;animation-delay:.4s"/>
  <rect x="337" y="154" width="10" height="8"   fill="#F5A623" opacity=".6" style="animation:winBlink 5s steps(1) infinite;animation-delay:.9s"/>

  <rect x="372" y="165" width="34" height="80"  fill="#111"/>
  <rect x="377" y="171" width="8"  height="6"   fill="#F5A623" opacity=".5" style="animation:winBlink2 3.9s steps(1) infinite;animation-delay:.5s"/>

  <rect x="432" y="153" width="44" height="92"  fill="#111"/>
  <rect x="437" y="159" width="9"  height="7"   fill="#F5A623" opacity=".5" style="animation:winBlink2 4.7s steps(1) infinite;animation-delay:.7s"/>
  <rect x="452" y="159" width="9"  height="7"   fill="#F5A623" opacity=".6" style="animation:winBlink 3.4s steps(1) infinite;animation-delay:1.1s"/>
  <rect x="437" y="173" width="9"  height="7"   fill="#F5A623" opacity=".5" style="animation:winBlink2 5.1s steps(1) infinite;animation-delay:.3s"/>

  <rect x="502" y="158" width="40" height="87"  fill="#111"/>
  <rect x="507" y="164" width="9"  height="7"   fill="#F5A623" opacity=".6" style="animation:winBlink 4s steps(1) infinite;animation-delay:.6s"/>

  <rect x="567" y="145" width="52" height="100" fill="#111"/>
  <rect x="572" y="151" width="11" height="8"   fill="#F5A623" opacity=".5" style="animation:winBlink2 3.6s steps(1) infinite;animation-delay:.8s"/>
  <rect x="589" y="151" width="11" height="8"   fill="#F5A623" opacity=".6" style="animation:winBlink 4.2s steps(1) infinite;animation-delay:.2s"/>
  <rect x="606" y="151" width="11" height="8"   fill="#F5A623" opacity=".5" style="animation:winBlink2 3s steps(1) infinite;animation-delay:1.2s"/>

  <rect x="642" y="161" width="36" height="84"  fill="#111"/>
  <rect x="647" y="167" width="9"  height="7"   fill="#F5A623" opacity=".6" style="animation:winBlink 3.8s steps(1) infinite;animation-delay:.3s"/>

  <rect x="702" y="151" width="46" height="94"  fill="#111"/>
  <rect x="707" y="157" width="10" height="8"   fill="#F5A623" opacity=".6" style="animation:winBlink 5s steps(1) infinite;animation-delay:1.1s"/>
  <rect x="723" y="157" width="10" height="8"   fill="#F5A623" opacity=".5" style="animation:winBlink2 3.3s steps(1) infinite;animation-delay:.4s"/>

  <rect x="772" y="163" width="38" height="82"  fill="#111"/>
  <rect x="777" y="169" width="9"  height="7"   fill="#F5A623" opacity=".5" style="animation:winBlink2 4.5s steps(1) infinite;animation-delay:.1s"/>

  <rect x="832" y="148" width="48" height="97"  fill="#111"/>
  <rect x="837" y="154" width="10" height="8"   fill="#F5A623" opacity=".5" style="animation:winBlink2 4.8s steps(1) infinite;animation-delay:.6s"/>
  <rect x="853" y="154" width="10" height="8"   fill="#F5A623" opacity=".6" style="animation:winBlink 3.6s steps(1) infinite;animation-delay:.2s"/>

  <!-- seamless -->
  <rect x="900" y="163" width="32" height="82"  fill="#111"/>
  <rect x="955" y="151" width="48" height="94"  fill="#111"/>
  <rect x="1020" y="148" width="50" height="97" fill="#111"/>
</g>

<!-- GROUND -->
<rect x="0" y="245" width="900" height="55" fill="#1a1a1a"/>
<rect x="0" y="245" width="900" height="3"  fill="#F5A623"/>
<g style="animation:groundScroll .5s linear infinite">
  <line x1="0"   y1="258" x2="42"  y2="258" stroke="#2a2a2a" stroke-width="1"/>
  <line x1="60"  y1="258" x2="98"  y2="258" stroke="#2a2a2a" stroke-width="1"/>
  <line x1="116" y1="258" x2="154" y2="258" stroke="#2a2a2a" stroke-width="1"/>
  <line x1="172" y1="258" x2="210" y2="258" stroke="#2a2a2a" stroke-width="1"/>
  <line x1="228" y1="258" x2="266" y2="258" stroke="#2a2a2a" stroke-width="1"/>
  <line x1="284" y1="258" x2="322" y2="258" stroke="#2a2a2a" stroke-width="1"/>
  <line x1="340" y1="258" x2="378" y2="258" stroke="#2a2a2a" stroke-width="1"/>
  <line x1="396" y1="258" x2="434" y2="258" stroke="#2a2a2a" stroke-width="1"/>
  <line x1="452" y1="258" x2="490" y2="258" stroke="#2a2a2a" stroke-width="1"/>
  <line x1="508" y1="258" x2="546" y2="258" stroke="#2a2a2a" stroke-width="1"/>
  <line x1="564" y1="258" x2="602" y2="258" stroke="#2a2a2a" stroke-width="1"/>
  <line x1="620" y1="258" x2="658" y2="258" stroke="#2a2a2a" stroke-width="1"/>
  <line x1="0"   y1="270" x2="30"  y2="270" stroke="#252525" stroke-width="1"/>
  <line x1="50"  y1="270" x2="88"  y2="270" stroke="#252525" stroke-width="1"/>
  <line x1="108" y1="270" x2="146" y2="270" stroke="#252525" stroke-width="1"/>
  <line x1="166" y1="270" x2="208" y2="270" stroke="#252525" stroke-width="1"/>
  <line x1="228" y1="270" x2="266" y2="270" stroke="#252525" stroke-width="1"/>
</g>

<!-- PLATFORMS -->
<g style="animation:platformMove 5s linear infinite">
  <rect x="420" y="200" width="95" height="6"  fill="#ffbe4d"/>
  <rect x="420" y="206" width="95" height="10" fill="#F5A623"/>
  <rect x="420" y="212" width="95" height="4"  fill="#cc8800"/>
  <rect x="424" y="199" width="5" height="2" fill="#cc8800"/>
  <rect x="438" y="199" width="5" height="2" fill="#cc8800"/>
  <rect x="452" y="199" width="5" height="2" fill="#cc8800"/>
  <g style="animation:blockFloat 1.4s ease-in-out infinite;transform-origin:453px 178px">
    <rect x="444" y="170" width="18" height="18" fill="#cc8800" rx="2"/>
    <text x="453" y="183" font-family="monospace" font-size="9" fill="#0d0d0d" font-weight="bold" text-anchor="middle">&lt;/&gt;</text>
  </g>
  <g style="animation:blockFloat 1.4s ease-in-out infinite;animation-delay:.3s;transform-origin:477px 178px">
    <rect x="468" y="170" width="18" height="18" fill="#cc8800" rx="2"/>
    <text x="477" y="183" font-family="monospace" font-size="9" fill="#0d0d0d" font-weight="bold" text-anchor="middle">JS</text>
  </g>
  <g style="animation:blockFloat 1.4s ease-in-out infinite;animation-delay:.6s;transform-origin:501px 178px">
    <rect x="492" y="170" width="18" height="18" fill="#cc8800" rx="2"/>
    <text x="501" y="183" font-family="monospace" font-size="9" fill="#0d0d0d" font-weight="bold" text-anchor="middle">AI</text>
  </g>
</g>

<g style="animation:platform2Move 5s linear infinite">
  <rect x="420" y="185" width="80" height="6"  fill="#ffbe4d"/>
  <rect x="420" y="191" width="80" height="10" fill="#F5A623"/>
  <rect x="420" y="197" width="80" height="4"  fill="#cc8800"/>
  <g style="animation:blockFloat 1.6s ease-in-out infinite;transform-origin:447px 163px">
    <rect x="438" y="155" width="18" height="18" fill="#cc8800" rx="2"/>
    <text x="447" y="168" font-family="monospace" font-size="9" fill="#0d0d0d" font-weight="bold" text-anchor="middle">TS</text>
  </g>
  <g style="animation:blockFloat 1.6s ease-in-out infinite;animation-delay:.4s;transform-origin:471px 163px">
    <rect x="462" y="155" width="18" height="18" fill="#cc8800" rx="2"/>
    <text x="471" y="168" font-family="monospace" font-size="9" fill="#0d0d0d" font-weight="bold" text-anchor="middle">⚡</text>
  </g>
</g>

<g style="animation:platform3Move 5s linear infinite">
  <rect x="420" y="192" width="100" height="6"  fill="#ffbe4d"/>
  <rect x="420" y="198" width="100" height="10" fill="#F5A623"/>
  <rect x="420" y="204" width="100" height="4"  fill="#cc8800"/>
  <g style="animation:blockFloat 1.2s ease-in-out infinite;transform-origin:453px 170px">
    <rect x="444" y="162" width="18" height="18" fill="#cc8800" rx="2"/>
    <text x="453" y="175" font-family="monospace" font-size="9" fill="#0d0d0d" font-weight="bold" text-anchor="middle">PY</text>
  </g>
  <g style="animation:blockFloat 1.2s ease-in-out infinite;animation-delay:.5s;transform-origin:477px 170px">
    <rect x="468" y="162" width="18" height="18" fill="#cc8800" rx="2"/>
    <text x="477" y="175" font-family="monospace" font-size="9" fill="#0d0d0d" font-weight="bold" text-anchor="middle">{ }</text>
  </g>
</g>

<!-- BUG ENEMIES -->
<g style="animation:bugMove 4.2s linear infinite">
  <rect x="550" y="217" width="22" height="27" fill="#cc2200" rx="2"/>
  <rect x="553" y="221" width="5" height="5" fill="#fff"/>
  <rect x="564" y="221" width="5" height="5" fill="#fff"/>
  <rect x="554" y="222" width="3" height="3" fill="#0d0d0d"/>
  <rect x="565" y="222" width="3" height="3" fill="#0d0d0d"/>
  <line x1="556" y1="217" x2="553" y2="209" stroke="#cc2200" stroke-width="1.5"/>
  <line x1="566" y1="217" x2="569" y2="209" stroke="#cc2200" stroke-width="1.5"/>
  <circle cx="553" cy="209" r="2.5" fill="#ff3300"/>
  <circle cx="569" cy="209" r="2.5" fill="#ff3300"/>
  <g style="animation:bugLeg .3s ease-in-out infinite;transform-origin:553px 235px">
    <line x1="553" y1="233" x2="547" y2="241" stroke="#cc2200" stroke-width="1.5"/>
  </g>
  <g style="animation:bugLeg .3s ease-in-out infinite reverse;transform-origin:569px 235px">
    <line x1="569" y1="233" x2="575" y2="241" stroke="#cc2200" stroke-width="1.5"/>
  </g>
  <text x="561" y="251" font-family="monospace" font-size="7" fill="#cc2200" text-anchor="middle" font-weight="bold">BUG</text>
</g>

<g style="animation:bug2Move 4.2s linear infinite">
  <rect x="550" y="217" width="22" height="27" fill="#cc2200" rx="2"/>
  <rect x="553" y="221" width="5" height="5" fill="#fff"/>
  <rect x="564" y="221" width="5" height="5" fill="#fff"/>
  <rect x="554" y="222" width="3" height="3" fill="#0d0d0d"/>
  <rect x="565" y="222" width="3" height="3" fill="#0d0d0d"/>
  <line x1="556" y1="217" x2="553" y2="209" stroke="#cc2200" stroke-width="1.5"/>
  <line x1="566" y1="217" x2="569" y2="209" stroke="#cc2200" stroke-width="1.5"/>
  <circle cx="553" cy="209" r="2.5" fill="#ff3300"/>
  <circle cx="569" cy="209" r="2.5" fill="#ff3300"/>
  <g style="animation:bugLeg .3s ease-in-out infinite;transform-origin:553px 235px">
    <line x1="553" y1="233" x2="547" y2="241" stroke="#cc2200" stroke-width="1.5"/>
  </g>
  <g style="animation:bugLeg .3s ease-in-out infinite reverse;transform-origin:569px 235px">
    <line x1="569" y1="233" x2="575" y2="241" stroke="#cc2200" stroke-width="1.5"/>
  </g>
  <text x="561" y="251" font-family="monospace" font-size="7" fill="#cc2200" text-anchor="middle" font-weight="bold">BUG</text>
</g>

<!-- COINS -->
<g style="animation:coinMove 3.8s linear infinite">
  <g style="animation:coinFloat .8s ease-in-out infinite;transform-origin:630px 230px">
    <ellipse cx="630" cy="230" rx="8" ry="8" fill="#F5A623"/>
    <ellipse cx="630" cy="230" rx="5" ry="8" fill="#ffbe4d"/>
    <text x="630" y="234" font-family="monospace" font-size="8" fill="#0d0d0d" font-weight="bold" text-anchor="middle">$</text>
  </g>
  <g style="animation:coinFloat .8s ease-in-out infinite;animation-delay:.15s;transform-origin:652px 230px">
    <ellipse cx="652" cy="230" rx="8" ry="8" fill="#F5A623"/>
    <ellipse cx="652" cy="230" rx="5" ry="8" fill="#ffbe4d"/>
    <text x="652" y="234" font-family="monospace" font-size="8" fill="#0d0d0d" font-weight="bold" text-anchor="middle">$</text>
  </g>
  <g style="animation:coinFloat .8s ease-in-out infinite;animation-delay:.3s;transform-origin:674px 230px">
    <ellipse cx="674" cy="230" rx="8" ry="8" fill="#F5A623"/>
    <ellipse cx="674" cy="230" rx="5" ry="8" fill="#ffbe4d"/>
    <text x="674" y="234" font-family="monospace" font-size="8" fill="#0d0d0d" font-weight="bold" text-anchor="middle">$</text>
  </g>
</g>
<g style="animation:coinMove2 3.8s linear infinite">
  <g style="animation:coinFloat .8s ease-in-out infinite;animation-delay:.2s;transform-origin:630px 230px">
    <ellipse cx="630" cy="230" rx="8" ry="8" fill="#F5A623"/>
    <ellipse cx="630" cy="230" rx="5" ry="8" fill="#ffbe4d"/>
    <text x="630" y="234" font-family="monospace" font-size="8" fill="#0d0d0d" font-weight="bold" text-anchor="middle">$</text>
  </g>
</g>

<!-- PLAYER WITH JUMP ARC — left side, NOT affected by play button -->
<g style="animation:jumpArc 3.2s ease-in-out infinite;transform-origin:169px 245px">
  <g style="animation:legLRun .35s steps(1) infinite;transform-origin:164px 228px">
    <rect x="158" y="213" width="9" height="18" fill="#222"/>
    <rect x="155" y="228" width="12" height="6" fill="#0d0d0d"/>
  </g>
  <g style="animation:legRRun .35s steps(1) infinite;transform-origin:176px 228px">
    <rect x="172" y="213" width="9" height="18" fill="#222"/>
    <rect x="170" y="228" width="12" height="6" fill="#0d0d0d"/>
  </g>
  <rect x="154" y="193" width="30" height="22" fill="#F5A623"/>
  <rect x="158" y="197" width="22" height="5"  fill="#cc8800"/>
  <text x="169" y="202" font-family="monospace" font-size="6" fill="#0d0d0d" font-weight="bold" text-anchor="middle">POG</text>
  <g style="animation:armLRun .35s steps(1) infinite;transform-origin:150px 200px">
    <rect x="144" y="193" width="9" height="18" fill="#F5A623"/>
    <rect x="142" y="208" width="9" height="7"  fill="#c8956c"/>
  </g>
  <g style="animation:armRRun .35s steps(1) infinite;transform-origin:186px 200px">
    <rect x="183" y="193" width="9" height="18" fill="#F5A623"/>
    <rect x="183" y="208" width="9" height="7"  fill="#c8956c"/>
  </g>
  <rect x="154" y="166" width="30" height="28" fill="#c8956c" rx="3"/>
  <rect x="154" y="163" width="30" height="10" fill="#1a1a1a" rx="2"/>
  <rect x="151" y="165" width="7"  height="7"  fill="#1a1a1a" rx="1"/>
  <rect x="176" y="165" width="7"  height="7"  fill="#1a1a1a" rx="1"/>
  <rect x="165" y="158" width="8"  height="10" fill="#1a1a1a" rx="1"/>
  <rect x="157" y="175" width="9"  height="7"  fill="rgba(100,200,255,0.12)" rx="1" stroke="#0d0d0d" stroke-width="1.5"/>
  <rect x="169" y="175" width="9"  height="7"  fill="rgba(100,200,255,0.12)" rx="1" stroke="#0d0d0d" stroke-width="1.5"/>
  <line x1="166" y1="178" x2="169" y2="178" stroke="#0d0d0d" stroke-width="1"/>
  <rect x="159" y="177" width="4" height="4" fill="#0d0d0d"/>
  <rect x="171" y="177" width="4" height="4" fill="#0d0d0d"/>
  <rect x="151" y="174" width="4" height="7" fill="#c8956c"/>
  <rect x="183" y="174" width="4" height="7" fill="#c8956c"/>
  <rect x="151" y="162" width="36" height="6" fill="#0d0d0d" rx="1"/>
  <rect x="145" y="166" width="12" height="4" fill="#0d0d0d" rx="1"/>
</g>

<!-- TECH TAGS -->
<g style="animation:tagScroll 11s linear infinite">
  <rect x="0"   y="108" width="64" height="15" fill="#1a1a1a" rx="3" stroke="#F5A623" stroke-width=".6"/>
  <text x="32"  y="120" font-family="'Courier New',monospace" font-size="9" fill="#F5A623" font-weight="bold" text-anchor="middle">Node.js</text>
  <rect x="78"  y="103" width="76" height="15" fill="#1a1a1a" rx="3" stroke="#444" stroke-width=".6"/>
  <text x="116" y="115" font-family="'Courier New',monospace" font-size="9" fill="#666" font-weight="bold" text-anchor="middle">PostgreSQL</text>
  <rect x="168" y="109" width="58" height="15" fill="#1a1a1a" rx="3" stroke="#F5A623" stroke-width=".6"/>
  <text x="197" y="121" font-family="'Courier New',monospace" font-size="9" fill="#F5A623" font-weight="bold" text-anchor="middle">Flutter</text>
  <rect x="240" y="104" width="66" height="15" fill="#1a1a1a" rx="3" stroke="#444" stroke-width=".6"/>
  <text x="273" y="116" font-family="'Courier New',monospace" font-size="9" fill="#666" font-weight="bold" text-anchor="middle">Firebase</text>
  <rect x="320" y="110" width="68" height="15" fill="#1a1a1a" rx="3" stroke="#F5A623" stroke-width=".6"/>
  <text x="354" y="122" font-family="'Courier New',monospace" font-size="9" fill="#F5A623" font-weight="bold" text-anchor="middle">Supabase</text>
  <rect x="402" y="105" width="54" height="15" fill="#1a1a1a" rx="3" stroke="#444" stroke-width=".6"/>
  <text x="429" y="117" font-family="'Courier New',monospace" font-size="9" fill="#666" font-weight="bold" text-anchor="middle">ESP32</text>
  <rect x="470" y="110" width="72" height="15" fill="#1a1a1a" rx="3" stroke="#F5A623" stroke-width=".6"/>
  <text x="506" y="122" font-family="'Courier New',monospace" font-size="9" fill="#F5A623" font-weight="bold" text-anchor="middle">TypeScript</text>
  <rect x="556" y="104" width="62" height="15" fill="#1a1a1a" rx="3" stroke="#444" stroke-width=".6"/>
  <text x="587" y="116" font-family="'Courier New',monospace" font-size="9" fill="#666" font-weight="bold" text-anchor="middle">Tailwind</text>
  <rect x="632" y="109" width="54" height="15" fill="#1a1a1a" rx="3" stroke="#F5A623" stroke-width=".6"/>
  <text x="659" y="121" font-family="'Courier New',monospace" font-size="9" fill="#F5A623" font-weight="bold" text-anchor="middle">Python</text>
  <rect x="700" y="105" width="52" height="15" fill="#1a1a1a" rx="3" stroke="#444" stroke-width=".6"/>
  <text x="726" y="117" font-family="'Courier New',monospace" font-size="9" fill="#666" font-weight="bold" text-anchor="middle">Figma</text>
</g>

<!-- HUD TOP LEFT -->
<rect x="10" y="10" width="168" height="34" fill="#0d0d0d" rx="3" stroke="#F5A623" stroke-width="1"/>
<text x="18" y="22" font-family="'Courier New',monospace" font-size="8"  fill="#666" font-weight="bold">PLAYER 1</text>
<text x="18" y="36" font-family="'Courier New',monospace" font-size="13" fill="#F5A623" font-weight="bold">SUDARSHAN</text>
<rect x="10" y="50" width="82" height="10" fill="#0d0d0d" rx="2" stroke="#F5A623" stroke-width=".8"/>
<rect x="11" y="51" width="78" height="8"  fill="#F5A623" rx="1" style="animation:hpGlow 1s ease-in-out infinite"/>
<text x="98" y="59" font-family="'Courier New',monospace" font-size="8" fill="#666">HP MAX</text>
<rect x="10" y="66" width="138" height="14" fill="#0d0d0d" rx="2" stroke="#444" stroke-width=".5"/>
<text x="16" y="77" font-family="'Courier New',monospace" font-size="11" fill="#F5A623" font-weight="bold">SCORE: 04820</text>
<rect x="10" y="86" width="120" height="14" fill="#F5A623" rx="2"/>
<text x="70" y="97" font-family="'Courier New',monospace" font-size="9" fill="#0d0d0d" font-weight="bold" text-anchor="middle">LVL 2 · B.TECH</text>

<!-- TITLE TOP RIGHT -->
<text x="760" y="28" font-family="'Courier New',monospace" font-size="26" fill="#F5A623" font-weight="bold" text-anchor="middle" letter-spacing="5">POG</text>
<text x="760" y="46" font-family="'Courier New',monospace" font-size="10" fill="#fff" font-weight="bold" text-anchor="middle" letter-spacing="2">SUDARSHAN</text>
<text x="760" y="60" font-family="'Courier New',monospace" font-size="8"  fill="#666" text-anchor="middle">Builder · Creator · Innovator</text>

<!-- ═══════════════════════════════════════════════ -->
<!-- PLAY BUTTON — completely independent, fixed    -->
<!-- center of the banner, slow pulse only          -->
<!-- ═══════════════════════════════════════════════ -->

<!-- outer ripple ring — expands and fades -->
<circle cx="450" cy="162" r="42" fill="none" stroke="#F5A623" stroke-width="1.2"
  style="animation:playGlow 2.4s ease-out infinite"/>

<!-- button circle — slow gentle pulse -->
<circle cx="450" cy="162" r="40" fill="#0d0d0d" stroke="#F5A623" stroke-width="2.5"
  style="animation:playPulse 2.4s ease-in-out infinite;transform-origin:450px 162px"/>

<!-- inner fill ring -->
<circle cx="450" cy="162" r="32" fill="rgba(245,166,35,0.08)" stroke="none"/>

<!-- play triangle — stays still, just slight opacity pulse -->
<polygon points="440,148 440,176 468,162" fill="#F5A623"
  style="animation:playTriangle 2.4s ease-in-out infinite"/>

<!-- CLICK TO PLAY text — fixed below button -->
<text x="450" y="218" font-family="'Courier New',monospace" font-size="11"
  fill="#F5A623" font-weight="bold" text-anchor="middle" letter-spacing="2"
  style="animation:playPulse 2.4s ease-in-out infinite;transform-origin:450px 218px">▶ CLICK TO PLAY</text>

<!-- FOOTER -->
<rect x="0" y="283" width="900" height="17" fill="#0d0d0d"/>
<text x="450" y="294" font-family="'Courier New',monospace" font-size="8" fill="#444" text-anchor="middle">[ COLLABORATE · github.com/Sudarshan-prog · pogpro.in ]</text>

<!-- BORDER & CORNERS -->
<rect x="1" y="1" width="898" height="298" fill="none" stroke="#F5A623" stroke-width="2" rx="5"/>
<rect x="0"   y="0"   width="9" height="9" fill="#F5A623"/>
<rect x="891" y="0"   width="9" height="9" fill="#F5A623"/>
<rect x="0"   y="291" width="9" height="9" fill="#F5A623"/>
<rect x="891" y="291" width="9" height="9" fill="#F5A623"/>

</g>
</svg>
